<svg width="20" height="20" viewBox="0 0 20 20" fill="none" xmlns="http://www.w3.org/2000/svg">
<circle cx="10" cy="10" r="10" fill="#FEBE44"/>
<circle cx="10" cy="10" r="10" fill="#EFB445"/>
<circle cx="10" cy="10" r="8" fill="#FFE499"/>
<circle cx="10" cy="10" r="8" fill="#F9F18F"/>
<path d="M10.8307 14.0625H7V5.9375H10.5551C11.4646 5.9375 12.1352 6.14864 12.5669 6.57093C12.9436 6.93638 13.1319 7.44393 13.1319 8.09361C13.1319 8.45093 13.0446 8.78389 12.8701 9.09249C12.6864 9.39296 12.4383 9.6041 12.126 9.72592C12.6404 9.77464 13.0584 9.93706 13.3799 10.2132C13.7933 10.5624 14 11.0578 14 11.6993C14 12.3652 13.7749 12.8971 13.3248 13.2951C12.7644 13.8067 11.9331 14.0625 10.8307 14.0625ZM9.38386 7.55763V9.14121H9.8248C10.2474 9.14121 10.5505 9.05594 10.7343 8.8854C10.8812 8.75547 10.9547 8.57681 10.9547 8.34942C10.9547 8.13015 10.8812 7.94743 10.7343 7.80126C10.5505 7.63884 10.2474 7.55763 9.8248 7.55763H9.38386ZM9.38386 10.7126V12.418H9.92126C10.6929 12.418 11.1844 12.3084 11.3957 12.0891C11.5243 11.9592 11.5886 11.7846 11.5886 11.5653C11.5886 11.3136 11.5105 11.1187 11.3543 10.9806C11.1522 10.8019 10.6608 10.7126 9.87992 10.7126H9.38386Z" fill="#E8AB38"/>
<path d="M9.45 5H8.4V5.9375H9.45V5Z" fill="#E8AB38"/>
<path d="M9.45 14.0625H8.4V15H9.45V14.0625Z" fill="#E8AB38"/>
<path d="M10.15 14.0625H10.4807C10.7349 14.0625 10.9746 14.0489 11.2 14.0217V15H10.15V14.0625Z" fill="#E8AB38"/>
<path d="M11.2 6.04318C10.9082 5.97272 10.5766 5.9375 10.2051 5.9375H10.15V5H11.2V6.04318Z" fill="#E8AB38"/>
</svg>
