<svg width="20" height="20" viewBox="0 0 20 20" fill="none" xmlns="http://www.w3.org/2000/svg">
<path fill-rule="evenodd" clip-rule="evenodd" d="M10 18C14.4183 18 18 14.4183 18 10C18 5.58172 14.4183 2 10 2C5.58172 2 2 5.58172 2 10C2 14.4183 5.58172 18 10 18ZM10 20C15.5228 20 20 15.5228 20 10C20 4.47715 15.5228 0 10 0C4.47715 0 0 4.47715 0 10C0 15.5228 4.47715 20 10 20Z" fill="#9A97AB"/>
<path fill-rule="evenodd" clip-rule="evenodd" d="M13.6367 7.69674C13.9491 7.38432 13.9491 6.87779 13.6367 6.56537C13.3243 6.25295 12.8177 6.25295 12.5053 6.56537L10.1012 8.9695L7.69715 6.56546C7.38473 6.25304 6.8782 6.25304 6.56578 6.56546C6.25336 6.87788 6.25336 7.38441 6.56578 7.69683L8.96981 10.1009L6.56561 12.5051C6.25319 12.8175 6.25319 13.324 6.56561 13.6364C6.87803 13.9489 7.38457 13.9489 7.69698 13.6364L10.1012 11.2322L12.5055 13.6365C12.8179 13.949 13.3244 13.949 13.6368 13.6365C13.9493 13.3241 13.9493 12.8176 13.6368 12.5052L11.2326 10.1009L13.6367 7.69674Z" fill="#9A97AB"/>
</svg>
