<svg width="11" height="11" viewBox="0 0 11 11" fill="none" xmlns="http://www.w3.org/2000/svg">
<path fill-rule="evenodd" clip-rule="evenodd" d="M9 9H2L2 10H9V9ZM2 8C1.44772 8 1 8.44772 1 9V10C1 10.5523 1.44772 11 2 11H9C9.55229 11 10 10.5523 10 10V9C10 8.44772 9.55229 8 9 8H2Z" fill="#9A97AB"/>
<path fill-rule="evenodd" clip-rule="evenodd" d="M9 5H2L2 6H9V5ZM2 4C1.44772 4 1 4.44772 1 5V6C1 6.55228 1.44772 7 2 7H9C9.55229 7 10 6.55228 10 6V5C10 4.44772 9.55229 4 9 4H2Z" fill="#9A97AB"/>
<path fill-rule="evenodd" clip-rule="evenodd" d="M9 1H2L2 2H9V1ZM2 0C1.44772 0 1 0.447715 1 1V2C1 2.55228 1.44772 3 2 3H9C9.55229 3 10 2.55228 10 2V1C10 0.447715 9.55229 0 9 0H2Z" fill="#9A97AB"/>
</svg>
