<?xml version="1.0" encoding="UTF-8" standalone="no"?>
<!DOCTYPE svg PUBLIC "-//W3C//DTD SVG 1.1//EN" "http://www.w3.org/Graphics/SVG/1.1/DTD/svg11.dtd">
<svg version="1.1" xmlns="http://www.w3.org/2000/svg" xmlns:xlink="http://www.w3.org/1999/xlink" preserveAspectRatio="xMidYMid meet" viewBox="0 0 510 510" width="510" height="510"><defs><path d="M474.06 216.86C463.76 218.51 455.74 221.19 457.39 231.49C457.4 231.6 457.42 231.71 457.44 231.83C476.67 345.04 400.49 452.41 287.27 471.65C174.05 490.88 66.68 414.69 47.45 301.47C28.22 188.26 104.41 80.88 217.62 61.65C287.25 49.82 358.12 74.15 405.81 126.23C397.44 129.02 422.54 83.04 422.54 89.94C325.28 -2.57 171.44 1.28 78.94 98.54C-13.57 195.8 -9.72 349.64 87.54 442.15C184.81 534.66 338.64 530.8 431.15 433.54C483.9 378.08 507.44 301.01 494.69 225.54C493.04 215.24 484.36 215.22 474.06 216.86Z" id="bw7PkJxJ"></path><path d="M266.78 172.57L268.22 172.63L269.63 172.7L271 172.76L272.33 172.82L273.62 172.88L274.87 172.94L276.08 173L277.26 173.05L278.4 173.11L279.49 173.17L280.55 173.23L281.58 173.29L282.56 173.35L283.5 173.4L284.41 173.46L285.28 173.52L286.1 173.57L286.89 173.63L287.65 173.68L288.36 173.74L289.03 173.8L289.67 173.85L290.27 173.9L290.82 173.96L291.35 174.01L291.83 174.07L292.27 174.12L292.67 174.17L293.04 174.23L293.37 174.28L293.66 174.33L293.91 174.38L294.12 174.43L294.29 174.48L294.43 174.53L294.52 174.58L294.58 174.64L294.6 174.69L295.21 174.87L295.82 175.06L296.42 175.26L297.02 175.47L297.62 175.68L298.21 175.9L298.81 176.13L299.39 176.37L299.98 176.61L300.56 176.86L301.14 177.11L301.72 177.37L302.29 177.64L302.86 177.91L303.43 178.19L303.99 178.48L304.55 178.78L305.11 179.08L305.66 179.39L306.21 179.7L306.76 180.02L307.3 180.35L307.83 180.68L308.37 181.02L308.9 181.36L309.42 181.72L309.95 182.07L310.46 182.44L310.98 182.81L311.49 183.18L311.99 183.57L312.49 183.96L312.99 184.35L313.48 184.75L313.97 185.16L314.45 185.57L314.93 185.99L315.4 186.41L315.87 186.84L316.33 187.28L317.91 188.85L319.42 190.49L320.84 192.2L322.19 193.97L323.46 195.79L324.65 197.67L325.76 199.6L326.8 201.57L327.76 203.59L328.63 205.64L329.43 207.74L330.16 209.87L330.8 212.02L331.36 214.21L331.85 216.41L332.26 218.63L332.58 220.88L332.83 223.13L333.01 225.39L333.1 227.66L333.11 229.93L333.04 232.19L332.9 234.46L332.67 236.71L332.37 238.95L331.99 241.18L331.53 243.39L330.98 245.57L330.36 247.74L329.66 249.87L328.88 251.97L328.02 254.03L327.08 256.06L326.06 258.04L324.96 259.97L323.78 261.86L322.52 263.69L321.18 265.47L319.76 267.18L318.27 268.84L319.32 269.71L320.36 270.59L321.38 271.48L322.37 272.37L323.33 273.26L324.28 274.15L325.2 275.05L326.09 275.96L326.97 276.87L327.81 277.79L328.64 278.72L329.44 279.65L330.21 280.6L330.96 281.55L331.68 282.51L332.38 283.48L333.05 284.46L333.69 285.46L334.31 286.46L334.9 287.48L335.47 288.51L336.01 289.55L336.52 290.61L337 291.68L337.46 292.76L337.89 293.86L338.29 294.98L338.66 296.11L339.01 297.26L339.32 298.43L339.61 299.62L339.86 300.82L340.09 302.05L340.29 303.29L340.46 304.55L340.6 305.84L340.71 307.14L340.78 308.47L340.83 309.82L340.85 311.19L340.81 313.29L340.71 315.38L340.53 317.45L340.28 319.5L339.97 321.54L339.59 323.55L339.15 325.54L338.64 327.51L338.07 329.46L337.44 331.38L336.75 333.28L335.99 335.14L335.18 336.98L334.31 338.79L333.38 340.57L332.4 342.31L331.36 344.02L330.27 345.69L329.12 347.33L327.92 348.93L326.67 350.48L325.37 352L324.02 353.48L322.63 354.91L321.19 356.3L319.7 357.64L318.16 358.93L316.59 360.18L314.97 361.37L313.3 362.52L311.6 363.61L309.86 364.65L308.08 365.63L306.26 366.56L304.4 367.42L302.51 368.23L300.58 368.98L298.62 369.67L296.63 370.29L294.6 370.85L294.58 370.9L294.52 370.95L294.43 371L294.29 371.05L294.12 371.1L293.91 371.14L293.66 371.19L293.37 371.24L293.04 371.29L292.67 371.34L292.27 371.39L291.83 371.44L291.35 371.49L290.82 371.54L290.27 371.59L289.67 371.64L289.03 371.69L288.36 371.74L287.65 371.79L286.89 371.84L286.1 371.89L285.28 371.94L284.41 371.99L283.5 372.04L282.56 372.09L281.58 372.14L280.55 372.19L279.49 372.24L278.4 372.29L277.26 372.34L276.08 372.39L274.87 372.45L273.62 372.5L272.33 372.55L271 372.6L269.63 372.65L268.22 372.7L266.78 372.75L265.29 372.8L263.77 372.86L207.18 372.86L206.54 372.85L205.93 372.82L205.33 372.78L204.75 372.73L204.18 372.66L203.63 372.57L203.1 372.46L202.58 372.34L202.07 372.21L201.59 372.06L201.12 371.89L200.66 371.71L200.22 371.51L199.8 371.29L199.39 371.06L199 370.81L198.62 370.55L198.27 370.27L197.92 369.97L197.59 369.66L197.28 369.33L196.99 368.99L196.71 368.63L196.44 368.25L196.2 367.86L195.96 367.46L195.75 367.03L195.55 366.59L195.37 366.14L195.2 365.67L195.05 365.18L194.91 364.68L194.79 364.16L194.69 363.62L194.6 363.07L194.53 362.51L194.47 361.92L194.43 361.32L194.41 360.71L194.4 360.08L194.4 185.23L194.41 184.6L194.43 183.98L194.47 183.38L194.53 182.8L194.6 182.23L194.69 181.68L194.79 181.15L194.91 180.63L195.05 180.13L195.2 179.64L195.37 179.17L195.55 178.71L195.75 178.27L195.96 177.85L196.2 177.44L196.44 177.05L196.71 176.68L196.99 176.32L197.28 175.97L197.59 175.65L197.92 175.33L198.27 175.04L198.62 174.76L199 174.5L199.39 174.25L199.8 174.02L200.22 173.8L200.66 173.6L201.12 173.42L201.59 173.25L202.07 173.1L202.58 172.96L203.1 172.84L203.63 172.74L204.18 172.65L204.75 172.58L205.33 172.52L205.93 172.48L206.54 172.46L207.18 172.45L263.77 172.45L265.29 172.51L266.78 172.57ZM225.23 342.02L279.19 342.02L280.46 342L281.71 341.92L282.96 341.8L284.19 341.62L285.4 341.4L286.6 341.13L287.77 340.81L288.93 340.45L290.07 340.05L291.19 339.6L292.28 339.11L293.35 338.58L294.4 338.01L295.43 337.4L296.42 336.76L297.39 336.08L298.34 335.36L299.25 334.6L300.13 333.81L300.99 332.99L301.81 332.14L302.6 331.26L303.35 330.34L304.07 329.4L304.75 328.43L305.4 327.43L306.01 326.41L306.58 325.36L307.11 324.29L307.59 323.19L308.04 322.08L308.45 320.94L308.81 319.78L309.12 318.6L309.39 317.41L309.61 316.19L309.79 314.96L309.92 313.72L309.99 312.46L310.02 311.19L309.99 309.92L309.92 308.66L309.79 307.42L309.61 306.19L309.39 304.98L309.12 303.78L308.81 302.61L308.45 301.45L308.04 300.31L307.59 299.19L307.11 298.1L306.58 297.02L306.01 295.98L305.4 294.95L304.75 293.95L304.07 292.98L303.35 292.04L302.6 291.13L301.81 290.24L300.99 289.39L300.13 288.57L299.25 287.78L298.34 287.03L297.39 286.31L296.42 285.63L295.43 284.98L294.4 284.37L293.35 283.8L292.28 283.27L291.19 282.78L290.07 282.34L288.93 281.93L287.77 281.57L286.6 281.26L285.4 280.99L284.19 280.76L282.96 280.59L281.71 280.46L280.46 280.39L279.19 280.36L225.23 280.36L225.23 342.02ZM225.23 253.05L279.19 253.05L280.14 253.02L281.08 252.95L282.02 252.82L282.94 252.65L283.85 252.43L284.74 252.16L285.63 251.85L286.49 251.5L287.35 251.11L288.19 250.68L289.01 250.21L289.81 249.71L290.6 249.17L291.37 248.59L292.11 247.99L292.84 247.35L293.55 246.68L294.23 245.99L294.9 245.26L295.54 244.52L296.15 243.74L296.74 242.95L297.31 242.14L297.85 241.3L298.36 240.45L298.85 239.58L299.3 238.69L299.73 237.79L300.13 236.88L300.49 235.96L300.83 235.02L301.13 234.08L301.4 233.13L301.64 232.18L301.84 231.22L302.01 230.25L302.14 229.29L302.23 228.33L302.29 227.36L302.31 226.41L302.29 225.45L302.23 224.51L302.14 223.58L302.01 222.65L301.84 221.74L301.64 220.85L301.4 219.97L301.13 219.1L300.83 218.24L300.49 217.4L300.13 216.58L299.73 215.78L299.3 214.99L298.85 214.22L298.36 213.48L297.85 212.75L297.31 212.04L296.74 211.36L296.15 210.69L295.54 210.05L294.9 209.44L294.23 208.85L293.55 208.28L292.84 207.74L292.11 207.23L291.37 206.75L290.6 206.29L289.81 205.86L289.01 205.47L288.19 205.1L287.35 204.76L286.49 204.46L285.63 204.19L284.74 203.95L283.85 203.75L282.94 203.58L282.02 203.45L281.08 203.36L280.14 203.3L279.19 203.28L225.23 203.28L225.23 253.05Z" id="b1vGOw5Ghj"></path><path d="M237.59 170.92C199.24 170.92 213.19 170.92 174.84 170.92C170.43 170.92 166.85 174.5 166.85 178.91C166.85 180.51 166.85 193.29 166.85 194.89C166.85 199.3 170.43 202.88 174.84 202.88C213.19 202.88 199.24 202.88 237.59 202.88C242 202.88 242 170.92 237.59 170.92Z" id="d3syGT1Qfe"></path><path d="M237.59 341.96C199.24 341.96 213.19 341.96 174.84 341.96C170.43 341.96 166.85 345.53 166.85 349.95C166.85 351.54 166.85 364.33 166.85 365.93C166.85 370.34 170.43 373.91 174.84 373.91C213.19 373.91 199.24 373.91 237.59 373.91C242 373.91 242 341.96 237.59 341.96Z" id="f4zYpJwHZ"></path><path d="M245.17 199.05C245.17 160.7 245.17 190.48 245.17 152.14C245.17 147.72 241.6 144.15 237.18 144.15C235.59 144.15 222.8 144.15 221.21 144.15C216.79 144.15 213.22 147.72 213.22 152.14C213.22 190.48 213.22 160.7 213.22 199.05C213.22 203.46 245.17 203.46 245.17 199.05Z" id="a1Dl7pzOYw"></path><path d="M298.87 199.36C298.87 161.01 298.87 190.79 298.87 152.44C298.87 148.03 295.3 144.45 290.88 144.45C289.29 144.45 276.5 144.45 274.91 144.45C270.49 144.45 266.92 148.03 266.92 152.44C266.92 190.79 266.92 161.01 266.92 199.36C266.92 203.77 298.87 203.77 298.87 199.36Z" id="awQZ5hi2A"></path><path d="M299.22 345.48C299.22 383.82 299.22 354.04 299.22 392.39C299.22 396.8 295.65 400.38 291.23 400.38C289.64 400.38 276.85 400.38 275.26 400.38C270.84 400.38 267.27 396.8 267.27 392.39C267.27 354.04 267.27 383.82 267.27 345.48C267.27 341.06 299.22 341.06 299.22 345.48Z" id="ib5ewKx55"></path><path d="M244.56 347.06C244.56 385.41 244.56 355.62 244.56 393.97C244.56 398.39 240.98 401.96 236.57 401.96C234.97 401.96 222.19 401.96 220.59 401.96C216.18 401.96 212.6 398.39 212.6 393.97C212.6 355.62 212.6 385.41 212.6 347.06C212.6 342.65 244.56 342.65 244.56 347.06Z" id="h79bdBbkGu"></path><path d="M454.31 139.2C453.63 127.4 448.24 33.03 447.56 21.24C447.29 16.53 443.18 12.63 438.46 12.61C436.8 12.6 423.49 12.55 421.82 12.54C417.27 12.53 413.84 16.14 414.1 20.69C414.35 25.17 415.63 47.59 417.94 87.92C428.85 98.27 429.4 98.8 419.59 89.49C416.03 86.11 391.53 111.94 395.1 115.32C404.91 124.63 404.36 124.11 393.45 113.76C353.04 113.6 330.59 113.51 326.1 113.49C321.55 113.47 318.12 117.09 318.38 121.64C318.47 123.3 319.23 136.59 319.33 138.25C319.6 142.96 323.71 146.86 328.43 146.88C336.31 146.91 375.69 147.07 446.58 147.35C451.9 144.95 454.48 142.23 454.31 139.2Z" id="i2HPWzW1EB"></path></defs><g><g><g><use xlink:href="#bw7PkJxJ" opacity="1" fill="#0fe7dc" fill-opacity="1"></use><g><use xlink:href="#bw7PkJxJ" opacity="1" fill-opacity="0" stroke="#000000" stroke-width="1" stroke-opacity="0"></use></g></g><g><use xlink:href="#b1vGOw5Ghj" opacity="1" fill="#0fe7dc" fill-opacity="1"></use><g><use xlink:href="#b1vGOw5Ghj" opacity="1" fill-opacity="0" stroke="#000000" stroke-width="1" stroke-opacity="0"></use></g></g><g><use xlink:href="#d3syGT1Qfe" opacity="1" fill="#0fe7dc" fill-opacity="1"></use><g><use xlink:href="#d3syGT1Qfe" opacity="1" fill-opacity="0" stroke="#000000" stroke-width="1" stroke-opacity="0"></use></g></g><g><use xlink:href="#f4zYpJwHZ" opacity="1" fill="#0fe7dc" fill-opacity="1"></use><g><use xlink:href="#f4zYpJwHZ" opacity="1" fill-opacity="0" stroke="#000000" stroke-width="1" stroke-opacity="0"></use></g></g><g><use xlink:href="#a1Dl7pzOYw" opacity="1" fill="#0fe7dc" fill-opacity="1"></use><g><use xlink:href="#a1Dl7pzOYw" opacity="1" fill-opacity="0" stroke="#000000" stroke-width="1" stroke-opacity="0"></use></g></g><g><use xlink:href="#awQZ5hi2A" opacity="1" fill="#0fe7dc" fill-opacity="1"></use><g><use xlink:href="#awQZ5hi2A" opacity="1" fill-opacity="0" stroke="#000000" stroke-width="1" stroke-opacity="0"></use></g></g><g><use xlink:href="#ib5ewKx55" opacity="1" fill="#0fe7dc" fill-opacity="1"></use><g><use xlink:href="#ib5ewKx55" opacity="1" fill-opacity="0" stroke="#000000" stroke-width="1" stroke-opacity="0"></use></g></g><g><use xlink:href="#h79bdBbkGu" opacity="1" fill="#0fe7dc" fill-opacity="1"></use><g><use xlink:href="#h79bdBbkGu" opacity="1" fill-opacity="0" stroke="#000000" stroke-width="1" stroke-opacity="0"></use></g></g><g><use xlink:href="#i2HPWzW1EB" opacity="1" fill="#0fe7dc" fill-opacity="1"></use><g><use xlink:href="#i2HPWzW1EB" opacity="1" fill-opacity="0" stroke="#000000" stroke-width="1" stroke-opacity="0"></use></g></g></g></g></svg>