<svg width="15" height="21" viewBox="0 0 15 21" fill="none" xmlns="http://www.w3.org/2000/svg">
<path d="M15 8.205C14.9913 8.1361 14.9746 8.06822 14.95 8.0025V7.935C14.9099 7.85788 14.8565 7.787 14.7917 7.725L9.79167 3.225C9.72278 3.16666 9.64402 3.11856 9.55833 3.0825C9.53346 3.07932 9.50821 3.07932 9.48333 3.0825C9.39868 3.03881 9.30519 3.01076 9.20833 3H5.83333C5.17029 3 4.53441 3.23705 4.06557 3.65901C3.59673 4.08097 3.33333 4.65326 3.33333 5.25V6H2.5C1.83696 6 1.20107 6.23705 0.732233 6.65901C0.263392 7.08097 0 7.65326 0 8.25V15.75C0 16.3467 0.263392 16.919 0.732233 17.341C1.20107 17.7629 1.83696 18 2.5 18H9.16667C9.82971 18 10.4656 17.7629 10.9344 17.341C11.4033 16.919 11.6667 16.3467 11.6667 15.75V15H12.5C13.163 15 13.7989 14.7629 14.2678 14.341C14.7366 13.919 15 13.3467 15 12.75V8.25V8.205ZM10 5.5575L12.1583 7.5H10.8333C10.6123 7.5 10.4004 7.42098 10.2441 7.28033C10.0878 7.13968 10 6.94891 10 6.75V5.5575ZM10 15.75C10 15.9489 9.9122 16.1397 9.75592 16.2803C9.59964 16.421 9.38768 16.5 9.16667 16.5H2.5C2.27899 16.5 2.06702 16.421 1.91074 16.2803C1.75446 16.1397 1.66667 15.9489 1.66667 15.75V8.25C1.66667 8.05109 1.75446 7.86032 1.91074 7.71967C2.06702 7.57902 2.27899 7.5 2.5 7.5H3.33333V12.75C3.33333 13.3467 3.59673 13.919 4.06557 14.341C4.53441 14.7629 5.17029 15 5.83333 15H10V15.75ZM13.3333 12.75C13.3333 12.9489 13.2455 13.1397 13.0893 13.2803C12.933 13.421 12.721 13.5 12.5 13.5H5.83333C5.61232 13.5 5.40036 13.421 5.24408 13.2803C5.0878 13.1397 5 12.9489 5 12.75V5.25C5 5.05109 5.0878 4.86032 5.24408 4.71967C5.40036 4.57902 5.61232 4.5 5.83333 4.5H8.33333V6.75C8.33333 7.34674 8.59672 7.91903 9.06557 8.34099C9.53441 8.76295 10.1703 9 10.8333 9H13.3333V12.75Z" fill="#4A4469"/>
</svg>
