<svg width="20" height="20" viewBox="0 0 20 20" fill="none" xmlns="http://www.w3.org/2000/svg">
<path d="M-4.36136e-07 10L10 3.45322e-05L10 20L-4.36136e-07 10Z" fill="#FEBE44"/>
<path d="M20 10L10 3.32145e-05L10 20L20 10Z" fill="#EFB445"/>
<path d="M16.6667 9.37211L10.0112 2.04028L3.35571 9.37211H7.82999L10 6.97301L12.17 9.37211H16.6667Z" fill="white"/>
<path d="M10.0112 2.04016L10 6.97289L12.17 9.37199H16.6667L10.0112 2.04016Z" fill="#EFD9B1"/>
<path d="M0 10.0001L10 20.0001L20 10.0001L10 13.7669L0 10.0001Z" fill="#FFCE45"/>
<path d="M10 20L20 10L10 13.7668L10 20Z" fill="#EFBD45"/>
</svg>
