<svg width="450" height="450" viewBox="0 0 450 450" fill="none" xmlns="http://www.w3.org/2000/svg">
<circle cx="225" cy="225" r="225" fill="url(#paint0_linear)"/>
<path fill-rule="evenodd" clip-rule="evenodd" d="M140.557 116H228.491C281.98 116 322.524 144.826 337.608 186.772H365V212.124H343.376C343.799 216.131 344.016 220.212 344.016 224.359V224.981C344.016 229.65 343.743 234.24 343.208 238.735H365V264.087H337.087C321.605 305.449 281.375 334 228.491 334H140.557V264.087H110V238.735H140.557V212.124H110V186.772H140.557V116ZM165.14 264.087V311.257H228.491C267.585 311.257 296.631 292.365 310.151 264.087H165.14ZM317.682 238.735H165.14V212.124H317.721C318.287 216.312 318.575 220.605 318.575 224.981V225.604C318.575 230.082 318.274 234.466 317.682 238.735ZM228.491 138.705C267.765 138.705 296.898 158.096 310.337 186.772H165.14V138.705H228.491Z" fill="white"/>
<defs>
<linearGradient id="paint0_linear" x1="218" y1="2.13981e-07" x2="241" y2="450" gradientUnits="userSpaceOnUse">
<stop stop-color="#F9AB11"/>
<stop offset="0.994792" stop-color="#FAC956"/>
</linearGradient>
</defs>
</svg>
