<svg width="25" height="25" viewBox="0 0 25 25" fill="none" xmlns="http://www.w3.org/2000/svg">
<path d="M8.49997 12.9C8.49997 13.7844 9.12653 14.5 9.89997 14.5C10.6734 14.5 11.3 13.7844 11.3 12.9C11.3 12.0156 10.6734 11.3 9.89997 11.3C9.12653 11.3 8.49997 12.0156 8.49997 12.9Z" fill="#EEF2FC"/>
<path d="M13.7 12.9C13.7 13.7844 14.3265 14.5 15.1 14.5C15.8734 14.5 16.5 13.7844 16.5 12.9C16.5 12.0156 15.8734 11.3 15.1 11.3C14.3265 11.3 13.7 12.0156 13.7 12.9Z" fill="#EEF2FC"/>
<path fill-rule="evenodd" clip-rule="evenodd" d="M12.5 25C19.4036 25 25 19.4036 25 12.5C25 5.59644 19.4036 0 12.5 0C5.59644 0 0 5.59644 0 12.5C0 19.4036 5.59644 25 12.5 25ZM14.9312 5.30157C15.039 5.30939 17.5578 5.52657 19.15 6.80782C20.014 7.6047 21.7 12.1609 21.7 16.1C21.7 16.1703 21.6812 16.2375 21.6468 16.2984C20.4843 18.3422 17.3109 18.8766 16.5875 18.9H16.575C16.4468 18.9 16.3265 18.8391 16.2515 18.7359L15.5203 17.7297C17.4937 17.2203 18.5015 16.3547 18.5593 16.3031C18.725 16.1578 18.7406 15.9063 18.5953 15.7406C18.4484 15.5734 18.1968 15.5594 18.0312 15.7031C17.9882 15.7393 16.1318 17.3 12.5 17.3C8.84997 17.3 6.99372 15.725 6.97028 15.7031C6.80465 15.5578 6.55153 15.5734 6.40622 15.7391C6.25934 15.9047 6.27497 16.1578 6.44059 16.3031C6.4984 16.3547 7.50622 17.2203 9.47965 17.7297L8.7484 18.7359C8.6734 18.8391 8.55309 18.9 8.42497 18.9H8.41247C7.68903 18.8766 4.51559 18.3422 3.35309 16.2984C3.31872 16.2375 3.29997 16.1703 3.29997 16.1C3.29997 12.1609 4.9859 7.6047 5.82809 6.82501C7.44215 5.52657 9.9609 5.30939 10.0687 5.30157C10.2375 5.28439 10.3953 5.38126 10.4656 5.53595L10.4662 5.53735C10.4738 5.55496 10.5269 5.67824 10.5859 5.87032C9.53278 6.04689 8.23903 6.40626 7.06872 7.13126C6.88122 7.24845 6.8234 7.49376 6.94059 7.68282C7.05622 7.87032 7.30309 7.92814 7.49059 7.81095C9.50153 6.56251 12.0156 6.50001 12.5 6.50001C12.9843 6.50001 15.4968 6.56251 17.5093 7.81095C17.575 7.85157 17.6484 7.87189 17.7203 7.87189C17.8547 7.87189 17.9843 7.8047 18.0609 7.68126C18.1765 7.49376 18.1187 7.24689 17.9312 7.13126C16.7609 6.4047 15.4672 6.04689 14.414 5.86876C14.475 5.67189 14.5297 5.54532 14.5359 5.53595C14.6047 5.38126 14.764 5.28751 14.9312 5.30157Z" fill="#EEF2FC"/>
</svg>
