<svg width="20" height="20" viewBox="0 0 20 20" fill="none" xmlns="http://www.w3.org/2000/svg">
<path fill-rule="evenodd" clip-rule="evenodd" d="M13.8414 3.64057L8.30772 9.17425L7.62238 12.8295L11.2776 12.1441L16.8113 6.61042C17.613 5.80863 17.5933 4.49519 16.775 3.67683C15.9566 2.85848 14.6432 2.83878 13.8414 3.64057ZM16.1395 5.93867L10.6984 11.3798L9.07206 9.75342L14.5132 4.31232C14.948 3.87746 15.666 3.88414 16.1168 4.33499C16.5677 4.78583 16.5744 5.5038 16.1395 5.93867ZM9.51631 11.514L8.80437 11.6475L8.93786 10.9355L9.51631 11.514ZM16.1875 4.26428C16.1876 4.26428 16.1875 4.26427 16.1875 4.26428Z" fill="#221B48"/>
<path d="M10 4.83331C10 4.55717 9.77614 4.33331 9.5 4.33331H4.66667C3.74619 4.33331 3 5.0795 3 5.99998V15.3333C3 16.2538 3.74619 17 4.66667 17H14C14.9205 17 15.6667 16.2538 15.6667 15.3333V11.1666C15.6667 10.8905 15.4428 10.6666 15.1667 10.6666V10.6666C14.8905 10.6666 14.6667 10.8905 14.6667 11.1666V15.3333C14.6667 15.7015 14.3682 16 14 16H4.66667C4.29848 16 4 15.7015 4 15.3333V5.99998C4 5.63179 4.29848 5.33331 4.66667 5.33331H9.5C9.77614 5.33331 10 5.10946 10 4.83331V4.83331Z" fill="#221B48"/>
</svg>
