<svg width="18" height="18" viewBox="0 0 18 18" fill="none" xmlns="http://www.w3.org/2000/svg">
<path d="M17.6896 14.8966H0.310359C0.138972 14.8966 0 14.7576 0 14.5862V3.41381C0 3.24243 0.138972 3.10345 0.310359 3.10345H17.6896C17.861 3.10345 18 3.24243 18 3.41381V14.5862C18 14.7576 17.861 14.8966 17.6896 14.8966Z" fill="#F5F5F5"/>
<path d="M18 4.01066H0V3.41381C0 3.24243 0.138972 3.10345 0.310359 3.10345H17.6896C17.861 3.10345 18 3.24243 18 3.41381L18 4.01066Z" fill="#FF4B55"/>
<path d="M18 6.73212H0V7.63929H18V6.73212Z" fill="#FF4B55"/>
<path d="M18 4.91772H0V5.82489H18V4.91772Z" fill="#FF4B55"/>
<path d="M18 9.45358H0.310359C0.138972 9.45358 0 9.31461 0 9.14323V8.54639H18V9.45358Z" fill="#FF4B55"/>
<path d="M18 12.1754H0V13.0825H18V12.1754Z" fill="#FF4B55"/>
<path d="M17.6896 14.8966H0.310359C0.138972 14.8966 0 14.7576 0 14.5863V13.9894H18V14.5863C18 14.7577 17.861 14.8966 17.6896 14.8966Z" fill="#FF4B55"/>
<path d="M18 10.361H0V11.2681H18V10.361Z" fill="#FF4B55"/>
<path d="M8.06894 3.10352H0.310359C0.138972 3.10352 0 3.24245 0 3.41384V9.14324C0 9.31463 0.138972 9.4536 0.310359 9.4536H8.06898C8.24036 9.4536 8.37934 9.31463 8.37934 9.14324V3.41384C8.3793 3.24245 8.24033 3.10352 8.06894 3.10352Z" fill="#41479B"/>
<path d="M0.871516 3.81591L0.940211 4.02192L1.15737 4.02357C1.1855 4.02382 1.19713 4.05968 1.17453 4.07638L0.999836 4.2054L1.06537 4.41244C1.07387 4.43922 1.04332 4.46144 1.02044 4.44506L0.843778 4.31881L0.667119 4.4451C0.644232 4.46144 0.613752 4.43926 0.622189 4.41247L0.68772 4.20544L0.513029 4.07641C0.490424 4.05968 0.50206 4.02386 0.530185 4.02361L0.747345 4.02196L0.81604 3.81594C0.824899 3.78922 0.862587 3.78922 0.871516 3.81591Z" fill="#F5F5F5"/>
<path d="M0.871516 4.89346L0.940211 5.09947L1.15737 5.10112C1.1855 5.10137 1.19713 5.13723 1.17453 5.15393L0.999836 5.28295L1.06537 5.48999C1.07387 5.51677 1.04332 5.53899 1.02044 5.52261L0.843778 5.39636L0.667119 5.52265C0.644232 5.53899 0.613752 5.51681 0.622189 5.49002L0.68772 5.28299L0.513029 5.15396C0.490424 5.13723 0.50206 5.1014 0.530185 5.10116L0.747345 5.09951L0.81604 4.89349C0.824899 4.86681 0.862587 4.86681 0.871516 4.89346Z" fill="#F5F5F5"/>
<path d="M0.871516 5.97115L0.940211 6.17717L1.15737 6.17882C1.1855 6.17907 1.19713 6.21493 1.17453 6.23163L0.999836 6.36065L1.06537 6.56769C1.07387 6.59448 1.04332 6.6167 1.02044 6.60031L0.843778 6.47407L0.667119 6.60035C0.644232 6.6167 0.613752 6.59451 0.622189 6.56772L0.68772 6.36069L0.513029 6.23166C0.490424 6.21493 0.50206 6.1791 0.530185 6.17886L0.747345 6.17721L0.81604 5.97119C0.824899 5.94451 0.862587 5.94451 0.871516 5.97115Z" fill="#F5F5F5"/>
<path d="M0.871516 7.04888L0.940211 7.25489L1.15737 7.25655C1.1855 7.25679 1.19713 7.29265 1.17453 7.30935L0.999836 7.43837L1.06537 7.64541C1.07387 7.6722 1.04332 7.69442 1.02044 7.67803L0.843778 7.55179L0.667119 7.67807C0.644232 7.69442 0.613752 7.67223 0.622189 7.64544L0.68772 7.43841L0.513029 7.30939C0.490424 7.29265 0.50206 7.25683 0.530185 7.25658L0.747345 7.25493L0.81604 7.04891C0.824899 7.02219 0.862587 7.02219 0.871516 7.04888Z" fill="#F5F5F5"/>
<path d="M0.871516 8.12654L0.940211 8.33256L1.15737 8.33421C1.1855 8.33446 1.19713 8.37032 1.17453 8.38702L0.999836 8.51604L1.06537 8.72308C1.07387 8.74987 1.04332 8.77208 1.02044 8.7557L0.843778 8.62946L0.667119 8.75574C0.644232 8.77208 0.613752 8.7499 0.622189 8.72311L0.68772 8.51608L0.513029 8.38705C0.490424 8.37032 0.50206 8.33449 0.530185 8.33425L0.747345 8.33259L0.81604 8.12658C0.824899 8.09982 0.862587 8.09982 0.871516 8.12654Z" fill="#F5F5F5"/>
<path d="M1.70803 4.34414L1.77673 4.55016L1.99389 4.55181C2.02201 4.55206 2.03365 4.58792 2.01104 4.60462L1.83635 4.73364L1.90188 4.94067C1.91039 4.96746 1.87984 4.98968 1.85695 4.9733L1.6803 4.84702L1.50364 4.9733C1.48075 4.98965 1.45027 4.96746 1.45871 4.94067L1.52424 4.73364L1.34955 4.60462C1.32694 4.58788 1.33858 4.55206 1.3667 4.55181L1.58386 4.55016L1.65256 4.34414C1.66138 4.3175 1.69914 4.3175 1.70803 4.34414Z" fill="#F5F5F5"/>
<path d="M1.70803 5.42187L1.77673 5.62788L1.99389 5.62953C2.02201 5.62978 2.03365 5.66564 2.01104 5.68234L1.83635 5.81136L1.90188 6.01839C1.91039 6.04518 1.87984 6.0674 1.85695 6.05102L1.6803 5.92474L1.50364 6.05102C1.48075 6.06736 1.45027 6.04522 1.45871 6.01839L1.52424 5.81136L1.34955 5.68234C1.32694 5.6656 1.33858 5.62978 1.3667 5.62953L1.58386 5.62788L1.65256 5.42187C1.66138 5.39518 1.69914 5.39518 1.70803 5.42187Z" fill="#F5F5F5"/>
<path d="M1.70803 6.49957L1.77673 6.70558L1.99389 6.70723C2.02201 6.70748 2.03365 6.74334 2.01104 6.76004L1.83635 6.88906L1.90188 7.0961C1.91039 7.12288 1.87984 7.1451 1.85695 7.12872L1.6803 7.00244L1.50364 7.12872C1.48075 7.14507 1.45027 7.12288 1.45871 7.0961L1.52424 6.88906L1.34955 6.76004C1.32694 6.7433 1.33858 6.70748 1.3667 6.70723L1.58386 6.70558L1.65256 6.49957C1.66138 6.47288 1.69914 6.47288 1.70803 6.49957Z" fill="#F5F5F5"/>
<path d="M1.70803 7.57718L1.77673 7.78319L1.99389 7.78484C2.02201 7.78509 2.03365 7.82095 2.01104 7.83765L1.83635 7.96667L1.90188 8.17371C1.91039 8.2005 1.87984 8.22271 1.85695 8.20633L1.6803 8.08005L1.50364 8.20633C1.48075 8.22268 1.45027 8.2005 1.45871 8.17371L1.52424 7.96667L1.34955 7.83765C1.32694 7.82091 1.33858 7.78509 1.3667 7.78484L1.58386 7.78319L1.65256 7.57718C1.66138 7.55053 1.69914 7.55053 1.70803 7.57718Z" fill="#F5F5F5"/>
<path d="M2.54455 3.81579L2.61325 4.0218L2.83041 4.02346C2.85853 4.0237 2.87017 4.05956 2.84757 4.07626L2.67287 4.20528L2.73841 4.41232C2.74691 4.4391 2.71636 4.46132 2.69348 4.44494L2.51681 4.31866L2.34015 4.44494C2.31727 4.46129 2.28679 4.4391 2.29522 4.41232L2.36076 4.20528L2.18606 4.07626C2.16346 4.05953 2.1751 4.0237 2.20322 4.02346L2.42038 4.0218L2.48908 3.81579C2.49794 3.78911 2.53566 3.78911 2.54455 3.81579Z" fill="#F5F5F5"/>
<path d="M2.54455 4.89346L2.61325 5.09948L2.83041 5.10113C2.85853 5.10137 2.87017 5.13723 2.84757 5.15393L2.67287 5.28296L2.73841 5.48999C2.74691 5.51678 2.71636 5.539 2.69348 5.52262L2.51681 5.39633L2.34015 5.52262C2.31727 5.53896 2.28679 5.51678 2.29522 5.48999L2.36076 5.28296L2.18606 5.15393C2.16346 5.1372 2.1751 5.10137 2.20322 5.10113L2.42038 5.09948L2.48908 4.89346C2.49794 4.86681 2.53566 4.86681 2.54455 4.89346Z" fill="#F5F5F5"/>
<path d="M2.54455 5.97116L2.61325 6.17718L2.83041 6.17883C2.85853 6.17907 2.87017 6.21493 2.84757 6.23163L2.67287 6.36066L2.73841 6.5677C2.74691 6.59448 2.71636 6.6167 2.69348 6.60032L2.51681 6.47404L2.34015 6.60032C2.31727 6.61667 2.28679 6.59448 2.29522 6.5677L2.36076 6.36066L2.18606 6.23163C2.16346 6.2149 2.1751 6.17907 2.20322 6.17883L2.42038 6.17718L2.48908 5.97116C2.49794 5.94451 2.53566 5.94451 2.54455 5.97116Z" fill="#F5F5F5"/>
<path d="M2.54455 7.04888L2.61325 7.2549L2.83041 7.25655C2.85853 7.2568 2.87017 7.29266 2.84757 7.30935L2.67287 7.43838L2.73841 7.64541C2.74691 7.6722 2.71636 7.69442 2.69348 7.67804L2.51681 7.55176L2.34015 7.67804C2.31727 7.69439 2.28679 7.6722 2.29522 7.64541L2.36076 7.43838L2.18606 7.30935C2.16346 7.29262 2.1751 7.2568 2.20322 7.25655L2.42038 7.2549L2.48908 7.04888C2.49794 7.0222 2.53566 7.0222 2.54455 7.04888Z" fill="#F5F5F5"/>
<path d="M2.54455 8.12655L2.61325 8.33256L2.83041 8.33421C2.85853 8.33446 2.87017 8.37032 2.84757 8.38702L2.67287 8.51604L2.73841 8.72308C2.74691 8.74987 2.71636 8.77209 2.69348 8.7557L2.51681 8.62942L2.34015 8.7557C2.31727 8.77205 2.28679 8.74987 2.29522 8.72308L2.36076 8.51604L2.18606 8.38702C2.16346 8.37028 2.1751 8.33446 2.20322 8.33421L2.42038 8.33256L2.48908 8.12655C2.49794 8.09983 2.53566 8.09983 2.54455 8.12655Z" fill="#F5F5F5"/>
<path d="M3.38104 4.34414L3.44973 4.55016L3.66689 4.55181C3.69502 4.55206 3.70666 4.58792 3.68405 4.60462L3.50936 4.73364L3.57489 4.94067C3.5834 4.96746 3.55285 4.98968 3.52996 4.9733L3.3533 4.84702L3.17664 4.9733C3.15375 4.98965 3.12327 4.96746 3.13171 4.94067L3.19724 4.73364L3.02255 4.60462C2.99995 4.58788 3.01158 4.55206 3.03971 4.55181L3.25687 4.55016L3.32556 4.34414C3.33439 4.3175 3.37214 4.3175 3.38104 4.34414Z" fill="#F5F5F5"/>
<path d="M3.38104 5.42187L3.44973 5.62788L3.66689 5.62953C3.69502 5.62978 3.70666 5.66564 3.68405 5.68234L3.50936 5.81136L3.57489 6.01839C3.5834 6.04518 3.55285 6.0674 3.52996 6.05102L3.3533 5.92474L3.17664 6.05102C3.15375 6.06736 3.12327 6.04522 3.13171 6.01839L3.19724 5.81136L3.02255 5.68234C2.99995 5.6656 3.01158 5.62978 3.03971 5.62953L3.25687 5.62788L3.32556 5.42187C3.33439 5.39518 3.37214 5.39518 3.38104 5.42187Z" fill="#F5F5F5"/>
<path d="M3.38104 6.49957L3.44973 6.70558L3.66689 6.70723C3.69502 6.70748 3.70666 6.74334 3.68405 6.76004L3.50936 6.88906L3.57489 7.0961C3.5834 7.12288 3.55285 7.1451 3.52996 7.12872L3.3533 7.00244L3.17664 7.12872C3.15375 7.14507 3.12327 7.12288 3.13171 7.0961L3.19724 6.88906L3.02255 6.76004C2.99995 6.7433 3.01158 6.70748 3.03971 6.70723L3.25687 6.70558L3.32556 6.49957C3.33439 6.47288 3.37214 6.47288 3.38104 6.49957Z" fill="#F5F5F5"/>
<path d="M3.38104 7.57718L3.44973 7.78319L3.66689 7.78484C3.69502 7.78509 3.70666 7.82095 3.68405 7.83765L3.50936 7.96667L3.57489 8.17371C3.5834 8.2005 3.55285 8.22271 3.52996 8.20633L3.3533 8.08005L3.17664 8.20633C3.15375 8.22268 3.12327 8.2005 3.13171 8.17371L3.19724 7.96667L3.02255 7.83765C2.99995 7.82091 3.01158 7.78509 3.03971 7.78484L3.25687 7.78319L3.32556 7.57718C3.33439 7.55053 3.37214 7.55053 3.38104 7.57718Z" fill="#F5F5F5"/>
<path d="M4.21744 3.81579L4.28613 4.0218L4.50329 4.02346C4.53142 4.0237 4.54306 4.05956 4.52045 4.07626L4.34576 4.20528L4.41129 4.41232C4.4198 4.4391 4.38925 4.46132 4.36636 4.44494L4.18967 4.31866L4.01301 4.44494C3.99012 4.46129 3.95964 4.4391 3.96808 4.41232L4.03361 4.20528L3.85892 4.07626C3.83631 4.05953 3.84795 4.0237 3.87607 4.02346L4.09323 4.0218L4.16193 3.81579C4.17082 3.78911 4.20854 3.78911 4.21744 3.81579Z" fill="#F5F5F5"/>
<path d="M4.21744 4.89346L4.28613 5.09948L4.50329 5.10113C4.53142 5.10137 4.54306 5.13723 4.52045 5.15393L4.34576 5.28296L4.41129 5.48999C4.4198 5.51678 4.38925 5.539 4.36636 5.52262L4.18967 5.39633L4.01301 5.52262C3.99012 5.53896 3.95964 5.51678 3.96808 5.48999L4.03361 5.28296L3.85892 5.15393C3.83631 5.1372 3.84795 5.10137 3.87607 5.10113L4.09323 5.09948L4.16193 4.89346C4.17082 4.86681 4.20854 4.86681 4.21744 4.89346Z" fill="#F5F5F5"/>
<path d="M4.21744 5.97116L4.28613 6.17718L4.50329 6.17883C4.53142 6.17907 4.54306 6.21493 4.52045 6.23163L4.34576 6.36066L4.41129 6.5677C4.4198 6.59448 4.38925 6.6167 4.36636 6.60032L4.18967 6.47404L4.01301 6.60032C3.99012 6.61667 3.95964 6.59448 3.96808 6.5677L4.03361 6.36066L3.85892 6.23163C3.83631 6.2149 3.84795 6.17907 3.87607 6.17883L4.09323 6.17718L4.16193 5.97116C4.17082 5.94451 4.20854 5.94451 4.21744 5.97116Z" fill="#F5F5F5"/>
<path d="M4.21744 7.04888L4.28613 7.2549L4.50329 7.25655C4.53142 7.2568 4.54306 7.29266 4.52045 7.30935L4.34576 7.43838L4.41129 7.64541C4.4198 7.6722 4.38925 7.69442 4.36636 7.67804L4.18967 7.55176L4.01301 7.67804C3.99012 7.69439 3.95964 7.6722 3.96808 7.64541L4.03361 7.43838L3.85892 7.30935C3.83631 7.29262 3.84795 7.2568 3.87607 7.25655L4.09323 7.2549L4.16193 7.04888C4.17082 7.0222 4.20854 7.0222 4.21744 7.04888Z" fill="#F5F5F5"/>
<path d="M4.21744 8.12655L4.28613 8.33256L4.50329 8.33421C4.53142 8.33446 4.54306 8.37032 4.52045 8.38702L4.34576 8.51604L4.41129 8.72308C4.4198 8.74987 4.38925 8.77209 4.36636 8.7557L4.18967 8.62942L4.01301 8.7557C3.99012 8.77205 3.95964 8.74987 3.96808 8.72308L4.03361 8.51604L3.85892 8.38702C3.83631 8.37028 3.84795 8.33446 3.87607 8.33421L4.09323 8.33256L4.16193 8.12655C4.17082 8.09983 4.20854 8.09983 4.21744 8.12655Z" fill="#F5F5F5"/>
<path d="M5.05411 4.34414L5.1228 4.55016L5.33996 4.55181C5.36809 4.55206 5.37972 4.58792 5.35712 4.60462L5.18243 4.73364L5.24796 4.94067C5.25647 4.96746 5.22591 4.98968 5.20303 4.9733L5.02637 4.84702L4.84971 4.9733C4.82682 4.98965 4.79634 4.96746 4.80478 4.94067L4.87031 4.73364L4.69562 4.60462C4.67301 4.58788 4.68465 4.55206 4.71277 4.55181L4.92993 4.55016L4.99863 4.34414C5.00752 4.3175 5.04521 4.3175 5.05411 4.34414Z" fill="#F5F5F5"/>
<path d="M5.05411 5.42187L5.1228 5.62788L5.33996 5.62953C5.36809 5.62978 5.37972 5.66564 5.35712 5.68234L5.18243 5.81136L5.24796 6.01839C5.25647 6.04518 5.22591 6.0674 5.20303 6.05102L5.02637 5.92474L4.84971 6.05102C4.82682 6.06736 4.79634 6.04522 4.80478 6.01839L4.87031 5.81136L4.69562 5.68234C4.67301 5.6656 4.68465 5.62978 4.71277 5.62953L4.92993 5.62788L4.99863 5.42187C5.00752 5.39518 5.04521 5.39518 5.05411 5.42187Z" fill="#F5F5F5"/>
<path d="M5.05411 6.49957L5.1228 6.70558L5.33996 6.70723C5.36809 6.70748 5.37972 6.74334 5.35712 6.76004L5.18243 6.88906L5.24796 7.0961C5.25647 7.12288 5.22591 7.1451 5.20303 7.12872L5.02637 7.00244L4.84971 7.12872C4.82682 7.14507 4.79634 7.12288 4.80478 7.0961L4.87031 6.88906L4.69562 6.76004C4.67301 6.7433 4.68465 6.70748 4.71277 6.70723L4.92993 6.70558L4.99863 6.49957C5.00752 6.47288 5.04521 6.47288 5.05411 6.49957Z" fill="#F5F5F5"/>
<path d="M5.05411 7.57718L5.1228 7.78319L5.33996 7.78484C5.36809 7.78509 5.37972 7.82095 5.35712 7.83765L5.18243 7.96667L5.24796 8.17371C5.25647 8.2005 5.22591 8.22271 5.20303 8.20633L5.02637 8.08005L4.84971 8.20633C4.82682 8.22268 4.79634 8.2005 4.80478 8.17371L4.87031 7.96667L4.69562 7.83765C4.67301 7.82091 4.68465 7.78509 4.71277 7.78484L4.92993 7.78319L4.99863 7.57718C5.00752 7.55053 5.04521 7.55053 5.05411 7.57718Z" fill="#F5F5F5"/>
<path d="M5.8902 3.81579L5.95889 4.0218L6.17605 4.02346C6.20418 4.0237 6.21581 4.05956 6.19321 4.07626L6.01852 4.20528L6.08405 4.41232C6.09256 4.4391 6.06201 4.46132 6.03912 4.44494L5.86246 4.31866L5.6858 4.44494C5.66291 4.46129 5.63243 4.4391 5.64087 4.41232L5.7064 4.20528L5.53171 4.07626C5.5091 4.05953 5.52074 4.0237 5.54886 4.02346L5.76602 4.0218L5.83472 3.81579C5.84354 3.78911 5.8813 3.78911 5.8902 3.81579Z" fill="#F5F5F5"/>
<path d="M5.8902 4.89346L5.95889 5.09948L6.17605 5.10113C6.20418 5.10137 6.21581 5.13723 6.19321 5.15393L6.01852 5.28296L6.08405 5.48999C6.09256 5.51678 6.06201 5.539 6.03912 5.52262L5.86246 5.39633L5.6858 5.52262C5.66291 5.53896 5.63243 5.51678 5.64087 5.48999L5.7064 5.28296L5.53171 5.15393C5.5091 5.1372 5.52074 5.10137 5.54886 5.10113L5.76602 5.09948L5.83472 4.89346C5.84354 4.86681 5.8813 4.86681 5.8902 4.89346Z" fill="#F5F5F5"/>
<path d="M5.8902 5.97116L5.95889 6.17718L6.17605 6.17883C6.20418 6.17907 6.21581 6.21493 6.19321 6.23163L6.01852 6.36066L6.08405 6.5677C6.09256 6.59448 6.06201 6.6167 6.03912 6.60032L5.86246 6.47404L5.6858 6.60032C5.66291 6.61667 5.63243 6.59448 5.64087 6.5677L5.7064 6.36066L5.53171 6.23163C5.5091 6.2149 5.52074 6.17907 5.54886 6.17883L5.76602 6.17718L5.83472 5.97116C5.84354 5.94451 5.8813 5.94451 5.8902 5.97116Z" fill="#F5F5F5"/>
<path d="M5.8902 7.04888L5.95889 7.2549L6.17605 7.25655C6.20418 7.2568 6.21581 7.29266 6.19321 7.30935L6.01852 7.43838L6.08405 7.64541C6.09256 7.6722 6.06201 7.69442 6.03912 7.67804L5.86246 7.55176L5.6858 7.67804C5.66291 7.69439 5.63243 7.6722 5.64087 7.64541L5.7064 7.43838L5.53171 7.30935C5.5091 7.29262 5.52074 7.2568 5.54886 7.25655L5.76602 7.2549L5.83472 7.04888C5.84354 7.0222 5.8813 7.0222 5.8902 7.04888Z" fill="#F5F5F5"/>
<path d="M5.8902 8.12655L5.95889 8.33256L6.17605 8.33421C6.20418 8.33446 6.21581 8.37032 6.19321 8.38702L6.01852 8.51604L6.08405 8.72308C6.09256 8.74987 6.06201 8.77209 6.03912 8.7557L5.86246 8.62942L5.6858 8.7557C5.66291 8.77205 5.63243 8.74987 5.64087 8.72308L5.7064 8.51604L5.53171 8.38702C5.5091 8.37028 5.52074 8.33446 5.54886 8.33421L5.76602 8.33256L5.83472 8.12655C5.84354 8.09983 5.8813 8.09983 5.8902 8.12655Z" fill="#F5F5F5"/>
<path d="M6.72671 4.34414L6.79541 4.55016L7.01256 4.55181C7.04069 4.55206 7.05233 4.58792 7.02972 4.60462L6.85503 4.73364L6.92056 4.94067C6.92907 4.96746 6.89852 4.98968 6.87563 4.9733L6.69897 4.84702L6.52231 4.9733C6.49943 4.98965 6.46895 4.96746 6.47738 4.94067L6.54291 4.73364L6.36822 4.60462C6.34562 4.58788 6.35725 4.55206 6.38538 4.55181L6.60254 4.55016L6.67123 4.34414C6.68009 4.3175 6.71785 4.3175 6.72671 4.34414Z" fill="#F5F5F5"/>
<path d="M6.72671 5.42187L6.79541 5.62788L7.01256 5.62953C7.04069 5.62978 7.05233 5.66564 7.02972 5.68234L6.85503 5.81136L6.92056 6.01839C6.92907 6.04518 6.89852 6.0674 6.87563 6.05102L6.69897 5.92474L6.52231 6.05102C6.49943 6.06736 6.46895 6.04522 6.47738 6.01839L6.54291 5.81136L6.36822 5.68234C6.34562 5.6656 6.35725 5.62978 6.38538 5.62953L6.60254 5.62788L6.67123 5.42187C6.68009 5.39518 6.71785 5.39518 6.72671 5.42187Z" fill="#F5F5F5"/>
<path d="M6.72671 6.49957L6.79541 6.70558L7.01256 6.70723C7.04069 6.70748 7.05233 6.74334 7.02972 6.76004L6.85503 6.88906L6.92056 7.0961C6.92907 7.12288 6.89852 7.1451 6.87563 7.12872L6.69897 7.00244L6.52231 7.12872C6.49943 7.14507 6.46895 7.12288 6.47738 7.0961L6.54291 6.88906L6.36822 6.76004C6.34562 6.7433 6.35725 6.70748 6.38538 6.70723L6.60254 6.70558L6.67123 6.49957C6.68009 6.47288 6.71785 6.47288 6.72671 6.49957Z" fill="#F5F5F5"/>
<path d="M6.72671 7.57718L6.79541 7.78319L7.01256 7.78484C7.04069 7.78509 7.05233 7.82095 7.02972 7.83765L6.85503 7.96667L6.92056 8.17371C6.92907 8.2005 6.89852 8.22271 6.87563 8.20633L6.69897 8.08005L6.52231 8.20633C6.49943 8.22268 6.46895 8.2005 6.47738 8.17371L6.54291 7.96667L6.36822 7.83765C6.34562 7.82091 6.35725 7.78509 6.38538 7.78484L6.60254 7.78319L6.67123 7.57718C6.68009 7.55053 6.71785 7.55053 6.72671 7.57718Z" fill="#F5F5F5"/>
<path d="M7.56338 3.81579L7.63208 4.0218L7.84924 4.02346C7.87736 4.0237 7.889 4.05956 7.86639 4.07626L7.6917 4.20528L7.75723 4.41232C7.76574 4.4391 7.73519 4.46132 7.7123 4.44494L7.53564 4.31866L7.35898 4.44494C7.3361 4.46129 7.30562 4.4391 7.31405 4.41232L7.37958 4.20528L7.20489 4.07626C7.18229 4.05953 7.19392 4.0237 7.22205 4.02346L7.43921 4.0218L7.5079 3.81579C7.51676 3.78911 7.55445 3.78911 7.56338 3.81579Z" fill="#F5F5F5"/>
<path d="M7.56338 4.89346L7.63208 5.09948L7.84924 5.10113C7.87736 5.10137 7.889 5.13723 7.86639 5.15393L7.6917 5.28296L7.75723 5.48999C7.76574 5.51678 7.73519 5.539 7.7123 5.52262L7.53564 5.39633L7.35898 5.52262C7.3361 5.53896 7.30562 5.51678 7.31405 5.48999L7.37958 5.28296L7.20489 5.15393C7.18229 5.1372 7.19392 5.10137 7.22205 5.10113L7.43921 5.09948L7.5079 4.89346C7.51676 4.86681 7.55445 4.86681 7.56338 4.89346Z" fill="#F5F5F5"/>
<path d="M7.56338 5.97116L7.63208 6.17718L7.84924 6.17883C7.87736 6.17907 7.889 6.21493 7.86639 6.23163L7.6917 6.36066L7.75723 6.5677C7.76574 6.59448 7.73519 6.6167 7.7123 6.60032L7.53564 6.47404L7.35898 6.60032C7.3361 6.61667 7.30562 6.59448 7.31405 6.5677L7.37958 6.36066L7.20489 6.23163C7.18229 6.2149 7.19392 6.17907 7.22205 6.17883L7.43921 6.17718L7.5079 5.97116C7.51676 5.94451 7.55445 5.94451 7.56338 5.97116Z" fill="#F5F5F5"/>
<path d="M7.56338 7.04888L7.63208 7.2549L7.84924 7.25655C7.87736 7.2568 7.889 7.29266 7.86639 7.30935L7.6917 7.43838L7.75723 7.64541C7.76574 7.6722 7.73519 7.69442 7.7123 7.67804L7.53564 7.55176L7.35898 7.67804C7.3361 7.69439 7.30562 7.6722 7.31405 7.64541L7.37958 7.43838L7.20489 7.30935C7.18229 7.29262 7.19392 7.2568 7.22205 7.25655L7.43921 7.2549L7.5079 7.04888C7.51676 7.0222 7.55445 7.0222 7.56338 7.04888Z" fill="#F5F5F5"/>
<path d="M7.56338 8.12655L7.63208 8.33256L7.84924 8.33421C7.87736 8.33446 7.889 8.37032 7.86639 8.38702L7.6917 8.51604L7.75723 8.72308C7.76574 8.74987 7.73519 8.77209 7.7123 8.7557L7.53564 8.62942L7.35898 8.7557C7.3361 8.77205 7.30562 8.74987 7.31405 8.72308L7.37958 8.51604L7.20489 8.38702C7.18229 8.37028 7.19392 8.33446 7.22205 8.33421L7.43921 8.33256L7.5079 8.12655C7.51676 8.09983 7.55445 8.09983 7.56338 8.12655Z" fill="#F5F5F5"/>
</svg>
