<svg width="25" height="25" viewBox="0 0 25 25" fill="none" xmlns="http://www.w3.org/2000/svg">
<path d="M24.999 12.577C24.999 5.63032 19.4029 0 12.4995 0C5.59607 0 0 5.63032 0 12.577C0 18.853 4.57102 24.0557 10.5463 24.999V16.2118H7.37322V12.576H10.5463V9.80589C10.5463 6.65325 12.413 4.91238 15.2673 4.91238C16.6351 4.91238 18.0653 5.15763 18.0653 5.15763V8.25263H16.4903C14.9381 8.25263 14.4537 9.22211 14.4537 10.2167V12.577H17.9205L17.3663 16.2128H14.4537V25C20.429 24.0567 25 18.854 25 12.577H24.999Z" fill="#4A4469"/>
</svg>
