<svg width="50" height="50" viewBox="0 0 50 50" fill="none" xmlns="http://www.w3.org/2000/svg">
<path d="M31 13.5939C31 15.8765 29.2253 17.2674 27.9227 18.2883L27.839 18.3538C27.3332 18.7496 26.4982 19.4031 26.5005 19.6546C26.5094 20.6893 25.6183 21.5156 24.5097 21.5156H24.493C23.3922 21.5156 22.4952 20.7147 22.4863 19.6852C22.4689 17.683 24.0129 16.4733 25.2786 15.4817L25.3297 15.4416C26.3299 14.6576 26.9858 14.1058 26.9858 13.601C26.9858 12.579 26.0951 11.7475 25.0003 11.7475C23.9051 11.7475 23.0142 12.579 23.0142 13.601C23.0142 14.6359 22.1157 15.4747 21.0071 15.4747C19.8985 15.4747 19 14.6359 19 13.601C19 10.5127 21.6915 8 24.9999 8C28.3085 7.99979 31 10.5054 31 13.5939Z" fill="#0FE7DC"/>
<path d="M24.5485 23.2453C23.4399 23.2453 22.5858 24.0841 22.5858 25.119V25.1334C22.5858 26.1683 23.4401 27 24.5485 27C25.6569 27 26.5556 26.1539 26.5556 25.119C26.5556 24.0841 25.6571 23.2453 24.5485 23.2453Z" fill="#0FE7DC"/>
<path fill-rule="evenodd" clip-rule="evenodd" d="M19 31V42L33.6667 31H46V4H4V31H19ZM15 50V35H2C0.895432 35 0 34.1046 0 33V2C0 0.89543 0.895431 0 2 0H48C49.1046 0 50 0.895431 50 2V33C50 34.1046 49.1046 35 48 35H35L15 50Z" fill="#0FE7DC"/>
</svg>
