<svg width="40" height="40" viewBox="0 0 40 40" fill="none" xmlns="http://www.w3.org/2000/svg">
<path d="M20 0C8.95 0 0 9.18237 0 20.5078C0 29.5705 5.73 37.2558 13.675 39.9646C14.675 40.1577 15.0417 39.5236 15.0417 38.9785C15.0417 38.4914 15.025 37.2011 15.0167 35.4922C9.45333 36.7295 8.28 32.7407 8.28 32.7407C7.37 30.3738 6.055 29.7414 6.055 29.7414C4.24333 28.4699 6.195 28.4956 6.195 28.4956C8.20333 28.6391 9.25833 30.6079 9.25833 30.6079C11.0417 33.7439 13.94 32.8381 15.0833 32.3134C15.2633 30.9873 15.7783 30.0832 16.35 29.5705C11.9083 29.0578 7.24 27.2942 7.24 19.4363C7.24 17.1975 8.015 15.3689 9.29833 13.9333C9.07333 13.4155 8.39833 11.3306 9.47333 8.50561C9.47333 8.50561 11.1483 7.95532 14.9733 10.6077C16.5733 10.1514 18.2733 9.92577 19.9733 9.91552C21.6733 9.92577 23.3733 10.1514 24.9733 10.6077C28.7733 7.95532 30.4483 8.50561 30.4483 8.50561C31.5233 11.3306 30.8483 13.4155 30.6483 13.9333C31.9233 15.3689 32.6983 17.1975 32.6983 19.4363C32.6983 27.3147 28.0233 29.0493 23.5733 29.5534C24.2733 30.1687 24.9233 31.4265 24.9233 33.3474C24.9233 36.092 24.8983 38.2966 24.8983 38.9631C24.8983 39.5014 25.2483 40.1423 26.2733 39.9372C34.275 37.2473 40 29.5569 40 20.5078C40 9.18237 31.045 0 20 0Z" fill="#4A4469"/>
</svg>
