<svg width="50" height="50" viewBox="0 0 50 50" fill="none" xmlns="http://www.w3.org/2000/svg">
<g clip-path="url(#clip0)">
<path d="M0 47C0 46.4477 0.447715 46 1 46H49C49.5523 46 50 46.4477 50 47V49C50 49.5523 49.5523 50 49 50H0.999999C0.447714 50 0 49.5523 0 49V47Z" fill="#0FE7DC"/>
<path d="M0 37C0 36.4477 0.447715 36 1 36H49C49.5523 36 50 36.4477 50 37V39C50 39.5523 49.5523 40 49 40H0.999999C0.447714 40 0 39.5523 0 39V37Z" fill="#0FE7DC"/>
<path d="M25.6309 0.279796C25.28 -0.0932653 24.72 -0.0932653 24.3691 0.279796L15.2726 9.94937C14.9091 10.3357 14.9091 10.9723 15.2726 11.3586L16.5535 12.7202C16.9044 13.0933 17.4644 13.0933 17.8153 12.7202L23 7.20892L23 30C23 30.5523 23.4477 31 24 31H26C26.5523 31 27 30.5523 27 30V7.20892L32.1847 12.7202C32.5356 13.0933 33.0956 13.0933 33.4465 12.7202L34.7274 11.3586C35.0909 10.9723 35.0909 10.3357 34.7274 9.94937L25.6309 0.279796Z" fill="#0FE7DC"/>
</g>
<defs>
<clipPath id="clip0">
<rect width="50" height="50" fill="white"/>
</clipPath>
</defs>
</svg>
