<svg width="21" height="21" viewBox="0 0 21 21" fill="none" xmlns="http://www.w3.org/2000/svg">
<path fill-rule="evenodd" clip-rule="evenodd" d="M10.5 18.9C15.1392 18.9 18.9 15.1392 18.9 10.5C18.9 5.86081 15.1392 2.1 10.5 2.1C5.86081 2.1 2.1 5.86081 2.1 10.5C2.1 15.1392 5.86081 18.9 10.5 18.9ZM10.5 21C16.299 21 21 16.299 21 10.5C21 4.70101 16.299 0 10.5 0C4.70101 0 0 4.70101 0 10.5C0 16.299 4.70101 21 10.5 21Z" fill="#EEF2FC"/>
<path fill-rule="evenodd" clip-rule="evenodd" d="M9.23993 5.04004H10.9199V10.08H15.9599V11.76H9.23993V5.04004Z" fill="#EEF2FC"/>
</svg>
