<svg width="50" height="50" viewBox="0 0 50 50" fill="none" xmlns="http://www.w3.org/2000/svg">
<g clip-path="url(#clip0)">
<path d="M50 3.00001C50 3.5523 49.5523 4.00001 49 4.00001L0.999998 4C0.447714 4 -6.69383e-07 3.55228 -5.24536e-07 3L0 1C1.44847e-07 0.447715 0.447716 2.99989e-08 1 1.74846e-07L49 1.27637e-05C49.5523 1.29086e-05 50 0.447728 50 1.00001L50 3.00001Z" fill="#0FE7DC"/>
<path d="M50 13C50 13.5523 49.5523 14 49 14L0.999997 14C0.447712 14 -2.41784e-06 13.5523 -2.27299e-06 13L-1.74846e-06 11C-1.60361e-06 10.4477 0.447714 10 0.999998 10L49 10C49.5523 10 50 10.4477 50 11L50 13Z" fill="#0FE7DC"/>
<path d="M24.369 49.7202C24.72 50.0933 25.28 50.0933 25.6309 49.7202L34.7274 40.0506C35.0908 39.6643 35.0908 39.0277 34.7274 38.6414L33.4465 37.2798C33.0956 36.9067 32.5356 36.9067 32.1846 37.2798L27 42.7911L27 20C27 19.4477 26.5523 19 26 19L24 19C23.4477 19 23 19.4477 23 20L23 42.7911L17.8153 37.2798C17.4644 36.9067 16.9044 36.9067 16.5534 37.2798L15.2726 38.6414C14.9091 39.0277 14.9091 39.6643 15.2726 40.0506L24.369 49.7202Z" fill="#0FE7DC"/>
</g>
<defs>
<clipPath id="clip0">
<rect width="50" height="50" fill="white"/>
</clipPath>
</defs>
</svg>
