<svg width="20" height="20" viewBox="0 0 20 20" fill="none" xmlns="http://www.w3.org/2000/svg">
<path d="M5.53439 4.66669H12.1323C12.4193 4.66669 12.6667 4.90375 12.6667 5.21431V7.50002C12.6667 7.77616 12.8905 8.00002 13.1667 8.00002C13.4428 8.00002 13.6667 7.77616 13.6667 7.50002V5.21431C13.6667 4.35958 12.9797 3.66669 12.1323 3.66669H5.53439C4.68697 3.66669 4 4.35958 4 5.21431V15.1191C4 15.9738 4.68697 16.6667 5.53439 16.6667H12.1323C12.9797 16.6667 13.6667 15.9738 13.6667 15.1191V13.1667C13.6667 12.8905 13.4428 12.6667 13.1667 12.6667C12.8905 12.6667 12.6667 12.8905 12.6667 13.1667V15.1191C12.6667 15.4296 12.4193 15.6667 12.1323 15.6667H5.53439C5.24733 15.6667 5 15.4296 5 15.1191V5.21431C5 4.90375 5.24733 4.66669 5.53439 4.66669Z" fill="#221B48"/>
<path fill-rule="evenodd" clip-rule="evenodd" d="M14.7315 8.33334C14.9299 8.14132 15.2465 8.14653 15.4385 8.34498L16.9941 9.95268C17.1995 10.1649 17.1995 10.5018 16.9941 10.714L15.4385 12.3217C15.2465 12.5201 14.9299 12.5254 14.7315 12.3333C14.533 12.1413 14.5278 11.8248 14.7198 11.6263L15.4871 10.8333H10.8333C10.5572 10.8333 10.3333 10.6095 10.3333 10.3333C10.3333 10.0572 10.5572 9.83334 10.8333 9.83334H15.4871L14.7198 9.04035C14.5278 8.8419 14.533 8.52536 14.7315 8.33334Z" fill="#221B48"/>
</svg>
