<svg width="50" height="50" viewBox="0 0 50 50" fill="none" xmlns="http://www.w3.org/2000/svg">
<g clip-path="url(#clip0)">
<path fill-rule="evenodd" clip-rule="evenodd" d="M11.6335 30.68L29 44.2615L29 6.73849L11.6336 20.32L4 20.32V30.68H11.6335ZM33 2.01201C33 0.465471 31.764 -0.501114 30.7753 0.272153L10.2552 16.32L1 16.32C0.447715 16.32 0 16.7677 0 17.32V33.68C0 34.2323 0.447716 34.68 1 34.68H10.2551L30.7753 50.7278C31.764 51.5011 33 50.5345 33 48.988L33 2.01201Z" fill="#0FE7DC"/>
<path fill-rule="evenodd" clip-rule="evenodd" d="M38.333 24.5C38.3329 21.9169 37.7179 19.2976 36.4256 15.8576C36.2082 15.2789 36.5504 14.6375 37.1548 14.5078L38.6924 14.1777C39.1701 14.0751 39.653 14.3327 39.8275 14.789C41.2528 18.5151 41.9999 21.4882 41.9999 24.4999C41.9999 27.5117 41.2529 30.4848 39.8275 34.2109C39.653 34.6673 39.1701 34.9248 38.6924 34.8222L37.1548 34.4921C36.5504 34.3624 36.2082 33.721 36.4256 33.1423C37.718 29.7023 38.333 27.083 38.333 24.5Z" fill="#0FE7DC"/>
<path fill-rule="evenodd" clip-rule="evenodd" d="M46.3483 25.2401C46.3483 22.2198 45.6986 19.0969 44.3447 14.7057C44.1656 14.125 44.5349 13.5156 45.1339 13.4133L46.699 13.1462C47.1903 13.0623 47.6692 13.3537 47.8174 13.8296C49.253 18.4404 49.9998 21.8612 49.9998 25.2401C49.9998 28.6145 49.2552 31.8809 47.8245 36.1831C47.6683 36.653 47.1886 36.934 46.7015 36.8449L45.1483 36.5609C44.5471 36.4509 44.1852 35.8313 44.376 35.2507C45.7091 31.1932 46.3483 28.2357 46.3483 25.2401Z" fill="#0FE7DC"/>
</g>
<defs>
<clipPath id="clip0">
<rect width="50" height="50" fill="white"/>
</clipPath>
</defs>
</svg>
