<svg width="25" height="25" viewBox="0 0 25 25" fill="none" xmlns="http://www.w3.org/2000/svg">
<path fill-rule="evenodd" clip-rule="evenodd" d="M25 12.5C25 19.4036 19.4036 25 12.5 25C5.59644 25 0 19.4036 0 12.5C0 5.59644 5.59644 0 12.5 0C19.4036 0 25 5.59644 25 12.5ZM19.3906 7.0191L18.2734 8.09028C18.226 8.12635 18.1894 8.17469 18.1675 8.23008C18.1457 8.28547 18.1394 8.34579 18.1493 8.40451V16.2752C18.1395 16.3338 18.1459 16.3939 18.1678 16.4491C18.1897 16.5043 18.2262 16.5525 18.2734 16.5885L19.3646 17.6597V17.895H13.8767V17.6606L15.0069 16.5625C15.1181 16.4514 15.1181 16.4193 15.1181 16.25V9.88715L11.9757 17.8689H11.5503L7.89062 9.88715V15.237C7.87557 15.3479 7.88596 15.4608 7.921 15.5672C7.95604 15.6735 8.01482 15.7704 8.09288 15.8507L9.56337 17.6337V17.8689H5.39497V17.6345L6.86632 15.8507C6.94375 15.7704 7.00121 15.673 7.03409 15.5664C7.06696 15.4598 7.07431 15.3469 7.05556 15.237V9.05122C7.06422 8.96648 7.05278 8.88089 7.02216 8.80141C6.99154 8.72192 6.94261 8.65078 6.87934 8.59375L5.57205 7.0191V6.78472H9.62934L12.7656 13.6623L15.5226 6.78385H19.3906V7.0191Z" fill="#EEF2FC"/>
</svg>
