<svg width="18" height="18" viewBox="0 0 18 18" fill="none" xmlns="http://www.w3.org/2000/svg">
<path d="M0 2.82859C0 2.65817 0.161178 2.52002 0.36 2.52002H17.64C17.8388 2.52002 18 2.65817 18 2.82859V4.37145C18 4.54187 17.8388 4.68002 17.64 4.68002H0.36C0.161177 4.68002 0 4.54187 0 4.37145V2.82859Z" fill="#EEF2FC"/>
<path d="M0 8.22849C0 8.05807 0.161178 7.91992 0.36 7.91992H17.64C17.8388 7.91992 18 8.05807 18 8.22849V9.77135C18 9.94177 17.8388 10.0799 17.64 10.0799H0.36C0.161177 10.0799 0 9.94177 0 9.77135V8.22849Z" fill="#EEF2FC"/>
<path d="M0 13.6284C0 13.458 0.161178 13.3198 0.36 13.3198H17.64C17.8388 13.3198 18 13.458 18 13.6284V15.1713C18 15.3417 17.8388 15.4798 17.64 15.4798H0.36C0.161177 15.4798 0 15.3417 0 15.1713V13.6284Z" fill="#EEF2FC"/>
</svg>
