<svg width="40" height="40" viewBox="0 0 40 40" fill="none" xmlns="http://www.w3.org/2000/svg">
<circle cx="20" cy="20" r="20" fill="#A5CBC9"/>
<path d="M18.3288 17.0595H21.6712V29H18.3288V17.0595ZM18.5753 13.447C18.1918 13.0426 18 12.5646 18 12.0131C18 11.4615 18.1918 10.9927 18.5753 10.6067C18.9772 10.2022 19.4521 10 20 10C20.5479 10 21.0137 10.2022 21.3973 10.6067C21.7991 10.9927 22 11.4615 22 12.0131C22 12.5646 21.7991 13.0426 21.3973 13.447C21.0137 13.8331 20.5479 14.0261 20 14.0261C19.4521 14.0261 18.9772 13.8331 18.5753 13.447Z" fill="#ECFFFE"/>
</svg>
