<svg width="40" height="40" viewBox="0 0 40 40" fill="none" xmlns="http://www.w3.org/2000/svg">
<circle cx="20" cy="20" r="20" fill="#CBA5A5"/>
<path fill-rule="evenodd" clip-rule="evenodd" d="M25.9729 13.522C25.2849 12.826 24.1695 12.826 23.4815 13.522L19.8252 17.2211L16.5185 13.8758C15.8305 13.1798 14.7151 13.1798 14.0271 13.8758C13.3391 14.5718 13.3391 15.7002 14.0271 16.3962L17.3338 19.7415L13.516 23.6039C12.828 24.2999 12.828 25.4284 13.516 26.1244C14.204 26.8204 15.3194 26.8204 16.0074 26.1244L19.8252 22.262L23.9926 26.4781C24.6806 27.1741 25.796 27.1741 26.484 26.4781C27.172 25.7821 27.172 24.6537 26.484 23.9577L22.3165 19.7415L25.9729 16.0425C26.6609 15.3465 26.6609 14.218 25.9729 13.522Z" fill="#FFECEC"/>
</svg>
