<svg width="25" height="25" viewBox="0 0 25 25" fill="none" xmlns="http://www.w3.org/2000/svg">
<path d="M9.32962 12.6338C8.54073 12.6338 7.9002 13.2863 7.9002 14.0895C7.9002 14.8927 8.54084 15.5619 9.32962 15.5455C10.1182 15.5455 10.7587 14.8927 10.7587 14.0895C10.7587 13.2862 10.1181 12.6338 9.32962 12.6338Z" fill="#EEF2FC"/>
<path d="M12.5001 19.0261C13.0421 19.0261 14.915 18.9591 15.9007 17.955C16.032 17.8044 16.032 17.5701 15.9007 17.4195C15.7527 17.2692 15.5228 17.2692 15.3749 17.4195C14.7671 18.0554 13.4366 18.2729 12.5001 18.2729C11.5637 18.2729 10.2495 18.0555 9.62512 17.4195C9.47721 17.2692 9.24726 17.2692 9.09935 17.4195C8.95175 17.5701 8.95175 17.8044 9.09935 17.955C10.0689 18.9422 11.9416 19.0261 12.5001 19.0261Z" fill="#EEF2FC"/>
<path d="M14.2086 14.1064C14.2086 14.9096 14.8491 15.562 15.6377 15.562C16.4264 15.562 17.067 14.8926 17.067 14.1064C17.067 13.3031 16.4264 12.6507 15.6377 12.6507C14.8491 12.6507 14.2086 13.3031 14.2086 14.1064Z" fill="#EEF2FC"/>
<path fill-rule="evenodd" clip-rule="evenodd" d="M25 12.5C25 19.4036 19.4036 25 12.5 25C5.59644 25 0 19.4036 0 12.5C0 5.59644 5.59644 0 12.5 0C19.4036 0 25 5.59644 25 12.5ZM19.6625 10.5923C20.7634 10.5923 21.6667 11.496 21.6667 12.6338C21.6667 13.4703 21.1739 14.1899 20.4841 14.5081C20.5168 14.7128 20.5333 14.9199 20.5334 15.1273C20.5334 18.2897 16.9356 20.8333 12.5001 20.8333C8.06469 20.8333 4.46692 18.2729 4.46692 15.1273C4.46622 14.9198 4.48271 14.7127 4.51623 14.5081C3.82606 14.1899 3.33333 13.4872 3.33333 12.6507C3.33333 11.5293 4.2204 10.6092 5.33751 10.6092C5.85756 10.6084 6.35781 10.8122 6.73388 11.1781C8.13014 10.1572 10.0523 9.50474 12.1878 9.43763L13.2066 4.55156C13.2229 4.45112 13.2721 4.36756 13.3542 4.31733C13.42 4.26711 13.5186 4.25022 13.6172 4.26711L16.9519 4.98668C17.1818 4.50134 17.6749 4.16667 18.2334 4.16667C19.022 4.16667 19.6625 4.81923 19.6625 5.62235C19.6625 6.42592 19.0218 7.07837 18.2334 7.07837C17.4611 7.07837 16.837 6.45914 16.804 5.68935L13.8141 5.0369L12.8943 9.42107C14.997 9.50474 16.8863 10.1572 18.2662 11.1613C18.6423 10.7954 19.1425 10.5916 19.6625 10.5923Z" fill="#EEF2FC"/>
</svg>
