<svg width="54" height="54" viewBox="0 0 54 54" fill="none" xmlns="http://www.w3.org/2000/svg">
<g opacity="0.5">
<g filter="url(#filter0_d)">
<circle cx="27" cy="24" r="15" fill="white"/>
</g>
<path d="M23.3981 19.8323C22.5769 20.4831 21.9352 21.3325 21.5334 22.3002C21.1282 23.221 20.9496 24.2255 21.0122 25.2296L22.7661 26.5639L23.3981 19.8323Z" fill="#00B4AF"/>
<path d="M21.573 27.2488C21.9511 28.1159 22.5252 28.8835 23.2503 29.4911L22.7634 26.3672L21.573 27.2488Z" fill="#009FB7"/>
<path d="M21.0127 25.1328C21.0603 25.8036 21.2128 26.4627 21.4646 27.0862C21.5007 27.1756 21.5365 27.2627 21.5762 27.3491L22.7666 26.4671L21.0127 25.1328Z" fill="#04B5AD"/>
<path d="M27.7435 28.6402L26.2563 30.8981C27.0241 31.0416 27.8125 31.0335 28.5772 30.8744L28.1658 28.58C28.0262 28.6076 27.8852 28.6278 27.7435 28.6402Z" fill="#117BBF"/>
<path d="M28.2444 17.6973L27.5946 20.493L28.1313 20.2783L29.3784 17.2427L28.2444 17.6973Z" fill="#0688BF"/>
<path d="M23.4964 25.9444C23.2394 25.0256 23.3143 24.0456 23.7078 23.1765C24.1014 22.3074 24.7885 21.6047 25.6485 21.1918L24.1548 19.3372C23.8906 19.4883 23.6378 19.6585 23.3984 19.8466L22.7665 26.5783L23.4964 25.9444Z" fill="#009CB7"/>
<path d="M26.2225 18.5077L27.0987 20.6917L27.5945 20.493L28.2444 17.6973L26.2225 18.5077Z" fill="#0095BA"/>
<path d="M25.8679 21.2066C25.9803 21.1603 26.0961 21.1187 26.2116 21.0814L26.5049 20.9877L25.6322 18.8126L25.3748 18.9017C25.2565 18.9421 25.1386 18.9855 25.0209 19.032C24.7234 19.1513 24.4345 19.2911 24.1564 19.4504L25.6501 21.305C25.7205 21.2704 25.7932 21.2373 25.8679 21.2066Z" fill="#0095BA"/>
<path d="M29.9842 17L29.9597 17.0093L31.0665 19.1004L32.104 18.6847L30.3416 17.0867L29.9842 17Z" fill="#2471B8"/>
<path d="M23.9507 26.8606C23.8245 26.656 23.7162 26.4408 23.6272 26.2174C23.5767 26.0925 23.5319 25.9653 23.493 25.8363L22.7631 26.4702L23.9507 26.8606Z" fill="#008BBC"/>
<path d="M26.9583 23.7298C26.8437 23.7754 26.7393 23.8432 26.651 23.9293C26.5627 24.0154 26.4923 24.1181 26.4437 24.2315C26.3952 24.3448 26.3695 24.4667 26.3682 24.59C26.3669 24.7133 26.3899 24.8357 26.436 24.9501L26.6133 25.3911C26.6925 25.5891 26.837 25.7542 27.0227 25.859C27.2085 25.9638 27.4245 26.0021 27.6349 25.9674L27.1761 23.6415L26.9583 23.7298Z" fill="#008BBC"/>
<path d="M25.8033 28.31C25.0375 28.0008 24.3892 27.4572 23.9511 26.7572L22.7638 26.3683L23.2507 29.4922C23.7417 29.897 24.289 30.228 24.8755 30.4749C25.2163 30.6213 25.5687 30.7391 25.9289 30.8273C26.039 30.8541 26.1494 30.8763 26.2595 30.8992L27.7439 28.6437C27.0794 28.698 26.4121 28.5835 25.8037 28.3108L25.8033 28.31Z" fill="#028CBC"/>
<path d="M29.3784 17.2427L28.1312 20.2784L31.0665 19.1005L29.9598 17.0094L29.3784 17.2427Z" fill="#047CC0"/>
<path d="M29.0144 28.3124C28.9681 28.3318 28.9215 28.3513 28.8752 28.3692C28.8433 28.3812 28.8118 28.3921 28.7795 28.4038L29.7724 28.8086L29.6226 28.436L29.0144 28.3124Z" fill="#3162AD"/>
<path d="M28.1686 28.5768L28.58 30.8713C28.9787 30.7886 29.3691 30.6705 29.7467 30.5182C29.8684 30.4692 29.9874 30.4174 30.1033 30.3626L30.3498 30.2479L29.7735 28.8071L28.7791 28.4022C28.5806 28.4749 28.3769 28.5328 28.1697 28.5753L28.1686 28.5768Z" fill="#2C69B2"/>
<path d="M30.4455 23.3541C30.3521 23.1236 30.1711 22.9395 29.9423 22.8422C29.7134 22.7448 29.4553 22.742 29.2244 22.8345L27.1761 23.6566L27.635 25.9826C27.7031 25.9716 27.7697 25.9532 27.8338 25.9277L30.0504 25.0395L30.6792 24.0035C30.6685 23.9332 30.6499 23.8643 30.6236 23.7982L30.4455 23.3541Z" fill="#1479BE"/>
<path d="M30.1001 25.0142C30.2969 24.9351 30.4611 24.7917 30.5658 24.6072C30.6705 24.4228 30.7095 24.2083 30.6764 23.9988L30.0476 25.0348L30.1001 25.0142Z" fill="#2E66B0"/>
<path d="M29.4838 28.1475L29.2115 28.2843C29.148 28.3146 29.0838 28.3437 29.019 28.3715L29.6273 28.4982L29.4838 28.1475Z" fill="#2E66B0"/>
<path d="M32.104 18.6842L33.9205 17.9559L30.3428 17.0863L32.104 18.6842Z" fill="#2C69B2"/>
</g>
<defs>
<filter id="filter0_d" x="0" y="0" width="54" height="54" filterUnits="userSpaceOnUse" color-interpolation-filters="sRGB">
<feFlood flood-opacity="0" result="BackgroundImageFix"/>
<feColorMatrix in="SourceAlpha" type="matrix" values="0 0 0 0 0 0 0 0 0 0 0 0 0 0 0 0 0 0 127 0"/>
<feOffset dy="3"/>
<feGaussianBlur stdDeviation="6"/>
<feColorMatrix type="matrix" values="0 0 0 0 0 0 0 0 0 0 0 0 0 0 0 0 0 0 0.15 0"/>
<feBlend mode="normal" in2="BackgroundImageFix" result="effect1_dropShadow"/>
<feBlend mode="normal" in="SourceGraphic" in2="effect1_dropShadow" result="shape"/>
</filter>
</defs>
</svg>
