<svg width="55" height="54" viewBox="0 0 55 54" fill="none" xmlns="http://www.w3.org/2000/svg">
<g opacity="0.5">
<g filter="url(#filter0_d)">
<ellipse cx="27.0417" cy="24" rx="15.0417" ry="15" fill="black"/>
</g>
<g clip-path="url(#clip0)">
<path fill-rule="evenodd" clip-rule="evenodd" d="M29.786 19L25.3592 29H25.0314L29.4582 19H29.786ZM30.3578 22.3104C30.3578 22.0303 30.4562 21.8026 30.6526 21.6275C30.8547 21.4525 31.114 21.365 31.4307 21.365C31.6384 21.365 31.8377 21.3883 32.0287 21.435C32.2254 21.4816 32.4546 21.5721 32.7168 21.7064L32.5694 22.004C32.3292 21.8756 32.1244 21.7852 31.9551 21.7326C31.7857 21.6859 31.6137 21.6626 31.4391 21.6626C31.2042 21.6626 31.0212 21.721 30.8902 21.8377C30.7538 21.9544 30.6854 22.1091 30.6854 22.3016C30.6854 22.4884 30.7399 22.6489 30.8493 22.7831C30.9639 22.9115 31.2178 23.0982 31.6111 23.3433C31.966 23.5651 32.2226 23.7547 32.381 23.9123C32.5448 24.0757 32.6649 24.2508 32.7414 24.4376C32.8123 24.6243 32.8478 24.849 32.8478 25.1117C32.8478 25.6311 32.7141 26.0424 32.4466 26.346C32.1789 26.6436 31.8047 26.7923 31.3244 26.7923C30.8603 26.7923 30.4888 26.6494 30.2103 26.3636C29.9372 26.0833 29.8007 25.707 29.8007 25.2341C29.8007 24.7905 29.9181 24.4288 30.153 24.1487C30.3823 23.8628 30.7509 23.6497 31.2587 23.5096C30.9203 23.3054 30.6854 23.1128 30.5544 22.9318C30.4232 22.7451 30.3578 22.538 30.3578 22.3104ZM34.0116 21.7268L35.2734 23.8623L36.5516 21.7268H36.904L35.4538 24.1161L37.0186 26.7242H36.6499L35.2652 24.3962L33.8559 26.7242H33.4955L35.0686 24.1161L33.6429 21.7268H34.0116ZM30.8217 23.9469C30.6577 24.0344 30.5264 24.1393 30.4281 24.2617C30.3296 24.3783 30.2557 24.5183 30.2066 24.6815C30.1519 24.8447 30.1246 25.0284 30.1246 25.2323C30.1246 25.6115 30.2339 25.9145 30.4526 26.142C30.6712 26.3692 30.9638 26.483 31.33 26.483C31.7072 26.483 31.9998 26.3665 32.2074 26.1331C32.4153 25.894 32.5191 25.5502 32.5191 25.1013C32.5191 24.7981 32.4425 24.5358 32.2894 24.3142C32.1419 24.0927 31.8877 23.8857 31.5269 23.6932C31.2153 23.7749 30.9803 23.8594 30.8217 23.9469ZM20.228 21.435C20.4246 21.4816 20.6539 21.5721 20.9161 21.7064L20.7686 22.004C20.5283 21.8756 20.3235 21.7852 20.1543 21.7326C19.985 21.6859 19.813 21.6626 19.6382 21.6626C19.4035 21.6626 19.2205 21.721 19.0895 21.8377C18.9528 21.9544 18.8847 22.1091 18.8847 22.3016C18.8847 22.4884 18.9392 22.6489 19.0486 22.7831C19.1631 22.9115 19.4171 23.0982 19.8103 23.3433C20.1652 23.5651 20.4219 23.7547 20.5801 23.9123C20.744 24.0757 20.8642 24.2508 20.9406 24.4376C21.0116 24.6243 21.0471 24.849 21.0471 25.1117C21.0471 25.6311 20.9133 26.0424 20.6458 26.346C20.3782 26.6436 20.004 26.7923 19.5235 26.7923C19.0594 26.7923 18.6881 26.6494 18.4096 26.3636C18.1365 26.0833 18 25.707 18 25.2341C18 24.7905 18.1174 24.4288 18.3522 24.1487C18.5816 23.8628 18.9501 23.6497 19.458 23.5096C19.1195 23.3054 18.8847 23.1128 18.7536 22.9318C18.6225 22.7452 18.557 22.538 18.557 22.3104C18.557 22.0303 18.6553 21.8026 18.8519 21.6275C19.054 21.4525 19.3133 21.365 19.63 21.365C19.8375 21.365 20.0369 21.3883 20.228 21.435ZM19.0258 23.9469C18.8617 24.0344 18.7306 24.1393 18.6321 24.2617C18.5337 24.3783 18.4599 24.5183 18.4108 24.6815C18.356 24.8447 18.3288 25.0284 18.3288 25.2323C18.3288 25.6115 18.438 25.9145 18.6568 26.142C18.8754 26.3692 19.1679 26.483 19.5342 26.483C19.9114 26.483 20.2039 26.3665 20.4116 26.1331C20.6193 25.894 20.7232 25.5502 20.7232 25.1013C20.7232 24.7981 20.6467 24.5358 20.4936 24.3142C20.346 24.0927 20.0917 23.8857 19.731 23.6932C19.4194 23.7749 19.1843 23.8594 19.0258 23.9469ZM25.1835 21.7268L23.6261 24.7901V26.7242H23.2898V24.8162L21.7242 21.7268H22.1013L23.4621 24.4575L24.831 21.7268H25.1835Z" fill="white"/>
</g>
</g>
<defs>
<filter id="filter0_d" x="0" y="0" width="54.0833" height="54" filterUnits="userSpaceOnUse" color-interpolation-filters="sRGB">
<feFlood flood-opacity="0" result="BackgroundImageFix"/>
<feColorMatrix in="SourceAlpha" type="matrix" values="0 0 0 0 0 0 0 0 0 0 0 0 0 0 0 0 0 0 127 0"/>
<feOffset dy="3"/>
<feGaussianBlur stdDeviation="6"/>
<feColorMatrix type="matrix" values="0 0 0 0 0 0 0 0 0 0 0 0 0 0 0 0 0 0 0.15 0"/>
<feBlend mode="normal" in2="BackgroundImageFix" result="effect1_dropShadow"/>
<feBlend mode="normal" in="SourceGraphic" in2="effect1_dropShadow" result="shape"/>
</filter>
<clipPath id="clip0">
<rect width="19" height="10" fill="white" transform="translate(18 19)"/>
</clipPath>
</defs>
</svg>
