<svg width="54" height="54" viewBox="0 0 54 54" fill="none" xmlns="http://www.w3.org/2000/svg">
<g opacity="0.5">
<g filter="url(#filter0_d)">
<circle cx="27" cy="24" r="15" fill="white"/>
</g>
<g opacity="0.7">
<path fill-rule="evenodd" clip-rule="evenodd" d="M20.7761 19.3967C20.9027 19.3264 21.0453 19.293 21.1888 19.3C21.3324 19.3069 21.4714 19.354 21.5911 19.4362L25.8959 22.3917C26.057 22.5024 26.1893 22.6527 26.2807 22.829C26.372 23.0053 26.4198 23.2022 26.4198 23.4022C26.4198 23.4022 26.4198 23.4022 26.4198 23.4022V27.0961H25.5874V23.4022C25.5874 23.3441 25.5735 23.2869 25.547 23.2357C25.5205 23.1846 25.4822 23.141 25.4355 23.1089L21.1895 20.1938V27.0961H20.3571V20.1207C20.3571 19.9722 20.3961 19.8263 20.4698 19.6988C20.5436 19.5713 20.6495 19.4669 20.7761 19.3967Z" fill="#291A41"/>
<path fill-rule="evenodd" clip-rule="evenodd" d="M32.8407 20.1938V27.0961H33.6731V20.1207C33.6731 19.9722 33.6341 19.8263 33.5603 19.6988C33.4866 19.5713 33.3807 19.4669 33.2541 19.3967C33.1275 19.3264 32.9849 19.293 32.8413 19.3C32.6978 19.3069 32.5588 19.354 32.4391 19.4362L28.1343 22.3917C28.1343 22.3917 28.1343 22.3917 28.1343 22.3917C27.9731 22.5023 27.8409 22.6525 27.7494 22.8288C27.6579 23.0051 27.61 23.2021 27.61 23.4021V27.0961H28.4424V23.4023C28.4424 23.4023 28.4424 23.4023 28.4424 23.4023C28.4424 23.3442 28.4563 23.287 28.4829 23.2358C28.5095 23.1847 28.5478 23.1411 28.5946 23.1089L32.8407 20.1938Z" fill="#291A41"/>
<path d="M21.1899 26.9435C21.1899 26.7058 21.0035 26.5131 20.7736 26.5131C20.5438 26.5131 20.3574 26.7058 20.3574 26.9435V27.2565C20.3574 27.4943 20.5438 27.687 20.7736 27.687C21.0035 27.687 21.1899 27.4943 21.1899 27.2565V26.9435Z" fill="#291A41"/>
<path d="M28.4416 26.9435C28.4416 26.7058 28.2552 26.5131 28.0253 26.5131C27.7955 26.5131 27.6091 26.7058 27.6091 26.9435V27.2565C27.6091 27.4943 27.7955 27.687 28.0253 27.687C28.2552 27.687 28.4416 27.4943 28.4416 27.2565V26.9435Z" fill="#291A41"/>
<path d="M33.6708 26.9435C33.6708 26.7058 33.4845 26.5131 33.2546 26.5131C33.0247 26.5131 32.8384 26.7058 32.8384 26.9435V27.2565C32.8384 27.4943 33.0247 27.687 33.2546 27.687C33.4845 27.687 33.6708 27.4943 33.6708 27.2565V26.9435Z" fill="#291A41"/>
<path d="M26.4211 26.9435C26.4211 26.7058 26.2347 26.5131 26.0048 26.5131C25.775 26.5131 25.5886 26.7058 25.5886 26.9435V27.2565C25.5886 27.4943 25.775 27.687 26.0048 27.687C26.2347 27.687 26.4211 27.4943 26.4211 27.2565V26.9435Z" fill="#291A41"/>
</g>
</g>
<defs>
<filter id="filter0_d" x="0" y="0" width="54" height="54" filterUnits="userSpaceOnUse" color-interpolation-filters="sRGB">
<feFlood flood-opacity="0" result="BackgroundImageFix"/>
<feColorMatrix in="SourceAlpha" type="matrix" values="0 0 0 0 0 0 0 0 0 0 0 0 0 0 0 0 0 0 127 0"/>
<feOffset dy="3"/>
<feGaussianBlur stdDeviation="6"/>
<feColorMatrix type="matrix" values="0 0 0 0 0 0 0 0 0 0 0 0 0 0 0 0 0 0 0.15 0"/>
<feBlend mode="normal" in2="BackgroundImageFix" result="effect1_dropShadow"/>
<feBlend mode="normal" in="SourceGraphic" in2="effect1_dropShadow" result="shape"/>
</filter>
</defs>
</svg>
