<svg width="54" height="54" viewBox="0 0 54 54" fill="none" xmlns="http://www.w3.org/2000/svg">
<g opacity="0.5">
<g filter="url(#filter0_d)">
<circle cx="27" cy="24" r="15" fill="white"/>
</g>
<g clip-path="url(#clip0)">
<path fill-rule="evenodd" clip-rule="evenodd" d="M20.2925 29.0285C19.8007 28.7543 19.5 28.2661 19.5 27.7418V24.8142C19.5 24.7021 19.5329 24.5941 19.5944 24.4981C19.7854 24.1979 20.209 24.0959 20.5383 24.2719L27.7868 28.124C28.2105 28.3501 28.4717 28.7624 28.4717 29.2106V32.2443C28.4717 32.3823 28.43 32.5204 28.351 32.6385C28.1117 32.9947 27.6024 33.1067 27.2117 32.8886L20.2925 29.0285ZM31.0971 23.4695C31.5208 23.6956 31.782 24.1079 31.782 24.5561V30.7114C31.782 30.8935 31.6745 31.0616 31.5011 31.1497L29.9139 31.9641C29.8942 31.9741 29.8722 31.9821 29.8503 31.9881V28.5703C29.8503 28.128 29.5956 27.7178 29.1786 27.4897L22.8125 24.0178V20.1597C22.8125 20.0476 22.8455 19.9396 22.9069 19.8435C23.0979 19.5434 23.5216 19.4413 23.8509 19.6174L31.0971 23.4695ZM34.2692 18.923C34.6951 19.1471 34.9563 19.5634 34.9563 20.0116V29.0025C34.9563 29.1866 34.8443 29.3567 34.6665 29.4447L33.1628 30.1851V23.9257C33.1628 23.4835 32.9082 23.0753 32.4933 22.8471L25.9868 19.2892V15.6292C25.9868 15.5172 26.0197 15.4091 26.079 15.3131C26.2699 15.0129 26.6936 14.9108 27.0229 15.0849L34.2692 18.923Z" fill="#00D395"/>
</g>
</g>
<defs>
<filter id="filter0_d" x="0" y="0" width="54" height="54" filterUnits="userSpaceOnUse" color-interpolation-filters="sRGB">
<feFlood flood-opacity="0" result="BackgroundImageFix"/>
<feColorMatrix in="SourceAlpha" type="matrix" values="0 0 0 0 0 0 0 0 0 0 0 0 0 0 0 0 0 0 127 0"/>
<feOffset dy="3"/>
<feGaussianBlur stdDeviation="6"/>
<feColorMatrix type="matrix" values="0 0 0 0 0 0 0 0 0 0 0 0 0 0 0 0 0 0 0.15 0"/>
<feBlend mode="normal" in2="BackgroundImageFix" result="effect1_dropShadow"/>
<feBlend mode="normal" in="SourceGraphic" in2="effect1_dropShadow" result="shape"/>
</filter>
<clipPath id="clip0">
<rect width="15.5" height="18" fill="white" transform="translate(19.5 15)"/>
</clipPath>
</defs>
</svg>
