<svg width="48" height="20" viewBox="0 0 48 20" fill="none" xmlns="http://www.w3.org/2000/svg">
<rect width="48" height="20" rx="5" fill="#0FE7DC"/>
<path d="M10.32 12.52L10.912 11.4C11.296 11.7627 11.704 11.944 12.136 11.944C12.3813 11.944 12.56 11.8827 12.672 11.76C12.7627 11.6693 12.808 11.5573 12.808 11.424C12.808 11.296 12.7573 11.1893 12.656 11.104C12.5707 11.0293 12.3413 10.936 11.968 10.824L11.608 10.712C11.2507 10.6 10.9947 10.456 10.84 10.28C10.6373 10.0613 10.536 9.74667 10.536 9.336C10.536 8.80267 10.6987 8.37333 11.024 8.048C11.36 7.712 11.816 7.544 12.392 7.544C12.9413 7.544 13.4907 7.688 14.04 7.976L13.488 9.056C13.184 8.816 12.88 8.696 12.576 8.696C12.384 8.696 12.232 8.74933 12.12 8.856C12.0293 8.94667 11.984 9.04267 11.984 9.144C11.984 9.24 12.008 9.32 12.056 9.384C12.1307 9.47467 12.2853 9.55467 12.52 9.624L12.944 9.752C13.392 9.89067 13.7147 10.0667 13.912 10.28C14.1413 10.5253 14.256 10.8427 14.256 11.232C14.256 11.792 14.088 12.24 13.752 12.576C13.3893 12.9387 12.864 13.12 12.176 13.12C11.7973 13.12 11.448 13.0613 11.128 12.944C10.856 12.848 10.5867 12.7067 10.32 12.52ZM21.9783 10.336C21.9783 11.1253 21.6983 11.7893 21.1383 12.328C20.5836 12.856 19.8823 13.12 19.0343 13.12C18.1863 13.12 17.485 12.856 16.9303 12.328C16.3703 11.7893 16.0903 11.1253 16.0903 10.336C16.0903 9.968 16.1596 9.608 16.2983 9.256C16.4423 8.904 16.653 8.59733 16.9303 8.336C17.485 7.808 18.1863 7.544 19.0343 7.544C19.8823 7.544 20.5836 7.808 21.1383 8.336C21.4156 8.59733 21.6236 8.904 21.7623 9.256C21.9063 9.608 21.9783 9.968 21.9783 10.336ZM19.0343 8.888C18.597 8.888 18.237 9.02933 17.9543 9.312C17.6716 9.58933 17.5303 9.93867 17.5303 10.36C17.5303 10.7493 17.6716 11.08 17.9543 11.352C18.2476 11.6347 18.6076 11.776 19.0343 11.776C19.4716 11.776 19.829 11.6373 20.1063 11.36C20.3943 11.072 20.5383 10.7307 20.5383 10.336C20.5383 9.93067 20.3943 9.58933 20.1063 9.312C19.8076 9.02933 19.4503 8.888 19.0343 8.888ZM29.7096 10.336C29.7096 11.1253 29.4296 11.7893 28.8696 12.328C28.3149 12.856 27.6136 13.12 26.7656 13.12C25.9176 13.12 25.2162 12.856 24.6616 12.328C24.1016 11.7893 23.8216 11.1253 23.8216 10.336C23.8216 9.968 23.8909 9.608 24.0296 9.256C24.1736 8.904 24.3842 8.59733 24.6616 8.336C25.2162 7.808 25.9176 7.544 26.7656 7.544C27.6136 7.544 28.3149 7.808 28.8696 8.336C29.1469 8.59733 29.3549 8.904 29.4936 9.256C29.6376 9.608 29.7096 9.968 29.7096 10.336ZM26.7656 8.888C26.3282 8.888 25.9682 9.02933 25.6856 9.312C25.4029 9.58933 25.2616 9.93867 25.2616 10.36C25.2616 10.7493 25.4029 11.08 25.6856 11.352C25.9789 11.6347 26.3389 11.776 26.7656 11.776C27.2029 11.776 27.5602 11.6373 27.8376 11.36C28.1256 11.072 28.2696 10.7307 28.2696 10.336C28.2696 9.93067 28.1256 9.58933 27.8376 9.312C27.5389 9.02933 27.1816 8.888 26.7656 8.888ZM33.1768 13H31.7928V7.664H33.1768L35.7288 10.928V7.664H37.1128V13H35.7288L33.1768 9.736V13Z" fill="#4A4469"/>
</svg>
