<svg width="20" height="20" viewBox="0 0 20 20" fill="none" xmlns="http://www.w3.org/2000/svg">
<path d="M4.45273 10.612C4.04961 10.1434 4.04961 9.38362 4.45273 8.91499C4.85586 8.44636 5.50945 8.44636 5.91257 8.91499L9.30567 12.8595C9.7088 13.3281 9.7088 14.0879 9.30567 14.5565C8.90255 15.0251 8.24896 15.0251 7.84583 14.5565L4.45273 10.612Z" fill="#10C583"/>
<path d="M14.2374 5.44046C14.6406 4.97183 15.2941 4.97183 15.6973 5.44046C16.1004 5.90909 16.1004 6.66889 15.6973 7.13752L9.31282 14.5594C8.9097 15.028 8.25611 15.028 7.85299 14.5594C7.44986 14.0908 7.44986 13.331 7.85299 12.8624L14.2374 5.44046Z" fill="#10C583"/>
</svg>
