<svg width="20" height="20" viewBox="0 0 20 20" fill="none" xmlns="http://www.w3.org/2000/svg">
<path fill-rule="evenodd" clip-rule="evenodd" d="M10 18C14.4183 18 18 14.4183 18 10C18 5.58172 14.4183 2 10 2C5.58172 2 2 5.58172 2 10C2 14.4183 5.58172 18 10 18ZM10 20C15.5228 20 20 15.5228 20 10C20 4.47715 15.5228 0 10 0C4.47715 0 0 4.47715 0 10C0 15.5228 4.47715 20 10 20Z" fill="#10C583"/>
<path fill-rule="evenodd" clip-rule="evenodd" d="M14.9444 6.58158C15.3022 6.92536 15.3022 7.49774 14.9444 7.84151L9.64398 12.9343C9.25694 13.3062 8.64534 13.3062 8.25829 12.9343L5.85566 10.6258C5.49787 10.282 5.49787 9.70961 5.85566 9.36584C6.19379 9.04095 6.72811 9.04095 7.06624 9.36584L8.95114 11.1769L13.7338 6.58158C14.0719 6.25669 14.6062 6.25669 14.9444 6.58158Z" fill="#10C583"/>
</svg>
