<svg width="172" height="132" viewBox="0 0 172 132" fill="none" xmlns="http://www.w3.org/2000/svg">
<path d="M129.013 7.11688C144.717 17.9394 152.2 36.8159 150.831 56.904C149.953 69.7844 145.437 83.1641 137.116 95.2379C126.032 111.323 111.559 119.445 95.982 122.323C81.6262 124.977 66.3309 123.173 51.8838 119.038C-12.6181 100.575 -6.61862 61.297 43.7803 30.9169C75.8709 11.5747 103.239 -10.6444 129.013 7.11688Z" fill="#CCD9F8"/>
<circle cx="83" cy="60" r="55" fill="#4C6AE7"/>
<g clip-path="url(#clip0)">
<path d="M113.992 60.0048C113.994 77.1181 100.115 90.9945 82.9956 90.992C65.876 90.9894 52.0061 77.1174 52.0098 60.0011C52.0135 42.8848 65.8832 29.0058 82.9993 29.0099C100.115 29.014 113.995 42.8846 113.992 60.0048Z" fill="#FFD200"/>
<path d="M95.1963 52.4074C94.7963 48.2557 91.2122 46.8637 86.6866 46.4675L86.6883 40.7082L83.1818 40.709L83.1794 46.317C82.2587 46.3172 81.3166 46.3342 80.3809 46.354L80.3795 40.7099L76.8763 40.7099L76.8779 46.4661L69.8097 46.4769L69.8104 50.2215C69.8104 50.2215 72.3993 50.1722 72.3563 50.22C73.7763 50.2206 74.2392 51.0444 74.3732 51.7561L74.3725 67.5326C74.3101 67.9795 74.0474 68.6917 73.0551 68.6918C73.1002 68.7317 70.506 68.6884 70.506 68.6884L69.8107 72.8806L76.8767 72.9016L76.878 78.7272L80.3797 78.7276L80.3804 72.9641C81.3437 72.9834 82.2722 72.9915 83.18 72.9907L83.1784 78.7275L86.6844 78.7269L86.6856 72.9119C92.5798 72.5733 96.7055 71.0884 97.2163 65.5578C97.6299 61.1017 95.5346 59.1129 92.1885 58.3088C94.2207 57.2718 95.4914 55.4489 95.1942 52.4102L95.1963 52.4074ZM90.2893 64.8638C90.2884 69.2171 82.8376 68.7224 80.4603 68.7241L80.4614 61.0065C82.8379 61.007 90.2877 60.324 90.2903 64.8629L90.2893 64.8638ZM88.6619 53.975C88.6612 57.9368 82.4445 57.474 80.4643 57.4738L80.4619 50.4731C82.4429 50.4738 88.6602 49.8444 88.6594 53.9753" fill="#4C6AE7"/>
</g>
<path d="M123.624 108.676L121 132H139.106L139.894 130.225L140.943 132H158C158 132 156.688 107.916 154.326 107.155C151.965 106.395 123.624 108.676 123.624 108.676Z" fill="#2F2E41"/>
<path d="M138.974 55.3218C144.136 55.3218 148.321 51.18 148.321 46.0707C148.321 40.9614 144.136 36.8196 138.974 36.8196C133.812 36.8196 129.628 40.9614 129.628 46.0707C129.628 51.18 133.812 55.3218 138.974 55.3218Z" fill="#FFB8B8"/>
<path d="M133.633 51.8857C133.633 51.8857 134.434 60.3438 133.633 60.8725C132.832 61.4011 146.451 61.1368 146.451 61.1368C146.451 61.1368 144.582 53.4716 146.451 49.7711L133.633 51.8857Z" fill="#FFB8B8"/>
<path d="M138.44 59.0223C138.44 59.0223 145.312 60.0816 145.882 57.9661L149.389 62.7228L149.656 110.3C149.656 110.3 121.083 113.736 120.014 108.185C118.946 102.635 130.963 58.758 130.963 58.758L133.988 58.5642C133.988 58.5642 137.906 59.0223 138.44 59.0223Z" fill="#D0CDE1"/>
<path d="M133.943 56.3933L129.361 57.9649L116.331 61.2769L116.81 92.8548C116.81 92.8548 105.594 124.573 110.668 126.952C115.741 129.331 122.952 123.78 125.088 119.815C127.224 115.85 134.701 60.8724 134.701 59.8151C134.701 58.7578 133.943 56.3933 133.943 56.3933Z" fill="#393263"/>
<path d="M145.71 56.3933L147.519 57.9649L160.337 63.7799L153.928 95.7623C153.928 95.7623 162.474 124.837 159.269 126.423C156.065 128.009 151.258 132.503 150.19 129.859C149.122 127.216 142.832 59.3151 145.71 56.3933Z" fill="#393263"/>
<path d="M153.128 98.6699C153.128 98.6699 141.111 93.6478 140.844 98.1412C140.577 102.635 154.463 105.806 154.463 104.485C154.463 103.163 153.128 98.6699 153.128 98.6699Z" fill="#FFB8B8"/>
<path d="M115.636 97.7235C115.636 97.7235 126.322 111.254 120.469 112.429C114.615 113.605 111.051 100.332 111.051 100.332L115.636 97.7235Z" fill="#FFB8B8"/>
<path d="M143.124 32.5191C143.168 32.4272 143.238 32.3503 143.327 32.2983C143.415 32.2464 143.517 32.2218 143.62 32.2278C139.341 31.9744 134.834 32.4681 131.254 34.802C130.251 35.4557 129.315 36.255 128.174 36.6233L129.1 37.3425L127.993 37.6765L129.622 38.7186C129.458 38.9037 129.247 39.0424 129.011 39.1208C128.774 39.1991 128.521 39.2142 128.278 39.1645C128.985 39.3692 129.507 39.9928 129.771 40.6742C130.036 41.3556 130.084 42.0977 130.129 42.8264C130.402 41.775 131.561 41.156 132.657 41.0932C133.752 41.0303 134.82 41.3879 135.885 41.645C138.207 42.2033 140.618 42.2951 142.975 41.915C142.175 43.5053 142.85 45.4022 143.53 47.0468L144.887 50.3305C145.64 50.4055 146.173 49.6639 146.74 49.1678C147.257 48.7157 145.198 52.692 145.517 52.5464C145.931 52.3571 150.303 47.5798 150.507 47.1762C151.441 45.3348 152.002 43.2809 151.917 41.2222C151.833 39.1635 151.072 37.1037 149.638 35.6098C148.665 34.5957 147.318 34.4181 146.326 33.5752C145.936 33.2434 145.934 32.9842 145.398 32.7908C145.219 32.7266 143.153 32.4544 143.124 32.5191Z" fill="#2F2E41"/>
<path d="M119.427 62.5953L116.331 61.2769L96.979 80.9702C96.979 80.9702 92.7273 86.4062 96.6007 90.4518C100.474 94.4975 109.001 105.809 109.001 105.809L117.768 98.0188C117.768 98.0188 106.74 88.7777 108.141 86.6876C109.542 84.5975 117.055 80.3538 117.055 80.3538L119.427 62.5953Z" fill="#393263"/>
<path d="M156.866 63.2513L160.338 63.78C160.338 63.78 174.758 91.7977 171.286 97.084C167.815 102.37 153.662 109.771 153.662 109.771C153.662 109.771 153.395 101.049 150.991 97.877L159.269 94.7052L154.73 77.2602L156.866 63.2513Z" fill="#393263"/>
<defs>
<clipPath id="clip0">
<rect width="62" height="62" fill="white" transform="translate(45.4213 37.4205) rotate(-14)"/>
</clipPath>
</defs>
</svg>
