<svg width="172" height="132" viewBox="0 0 172 132" fill="none" xmlns="http://www.w3.org/2000/svg">
<path d="M129.013 7.11688C144.717 17.9394 152.2 36.8159 150.831 56.904C149.953 69.7844 145.437 83.1641 137.116 95.2379C126.032 111.323 111.559 119.445 95.982 122.323C81.6262 124.977 66.3309 123.173 51.8838 119.038C-12.6181 100.575 -6.61862 61.297 43.7803 30.9169C75.8709 11.5747 103.239 -10.6444 129.013 7.11688Z" fill="#CCD9F8"/>
<circle cx="83" cy="60" r="55" fill="#4C6AE7"/>
<path d="M123.219 108.714L120.548 133.031H138.974L139.775 131.181L140.844 133.031H158.201C158.201 133.031 156.866 107.921 154.463 107.128C152.059 106.335 123.219 108.714 123.219 108.714Z" fill="#2F2E41"/>
<path d="M138.974 55.3218C144.136 55.3218 148.321 51.18 148.321 46.0707C148.321 40.9614 144.136 36.8196 138.974 36.8196C133.812 36.8196 129.628 40.9614 129.628 46.0707C129.628 51.18 133.812 55.3218 138.974 55.3218Z" fill="#FFB8B8"/>
<path d="M133.633 51.8857C133.633 51.8857 134.434 60.3438 133.633 60.8725C132.832 61.4011 146.451 61.1368 146.451 61.1368C146.451 61.1368 144.582 53.4716 146.451 49.7711L133.633 51.8857Z" fill="#FFB8B8"/>
<path d="M138.44 59.0223C138.44 59.0223 145.312 60.0816 145.882 57.9661L149.389 62.7228L149.656 110.3C149.656 110.3 121.083 113.736 120.014 108.185C118.946 102.635 130.963 58.758 130.963 58.758L133.988 58.5642C133.988 58.5642 137.906 59.0223 138.44 59.0223Z" fill="#D0CDE1"/>
<path d="M133.943 56.3933L129.361 57.9649L116.331 61.2769L116.81 92.8548C116.81 92.8548 105.594 124.573 110.668 126.952C115.741 129.331 122.952 123.78 125.088 119.815C127.224 115.85 134.701 60.8724 134.701 59.8151C134.701 58.7578 133.943 56.3933 133.943 56.3933Z" fill="#393263"/>
<path d="M145.71 56.3933L147.519 57.9649L160.337 63.7799L153.928 95.7623C153.928 95.7623 162.474 124.837 159.269 126.423C156.065 128.009 151.258 132.503 150.19 129.859C149.122 127.216 142.832 59.3151 145.71 56.3933Z" fill="#393263"/>
<path d="M153.128 98.6699C153.128 98.6699 141.111 93.6478 140.844 98.1412C140.577 102.635 154.463 105.806 154.463 104.485C154.463 103.163 153.128 98.6699 153.128 98.6699Z" fill="#FFB8B8"/>
<path d="M115.636 97.7235C115.636 97.7235 126.322 111.254 120.469 112.429C114.615 113.605 111.051 100.332 111.051 100.332L115.636 97.7235Z" fill="#FFB8B8"/>
<path d="M143.124 32.5191C143.168 32.4272 143.238 32.3503 143.327 32.2983C143.415 32.2464 143.517 32.2218 143.62 32.2278C139.341 31.9744 134.834 32.4681 131.254 34.802C130.251 35.4557 129.315 36.255 128.174 36.6233L129.1 37.3425L127.993 37.6765L129.622 38.7186C129.458 38.9037 129.247 39.0424 129.011 39.1208C128.774 39.1991 128.521 39.2142 128.278 39.1645C128.985 39.3692 129.507 39.9928 129.771 40.6742C130.036 41.3556 130.084 42.0977 130.129 42.8264C130.402 41.775 131.561 41.156 132.657 41.0932C133.752 41.0303 134.82 41.3879 135.885 41.645C138.207 42.2033 140.618 42.2951 142.975 41.915C142.175 43.5053 142.85 45.4022 143.53 47.0468L144.887 50.3305C145.64 50.4055 146.173 49.6639 146.74 49.1678C147.257 48.7157 145.198 52.692 145.517 52.5464C145.931 52.3571 150.303 47.5798 150.507 47.1762C151.441 45.3348 152.002 43.2809 151.917 41.2222C151.833 39.1635 151.072 37.1037 149.638 35.6098C148.665 34.5957 147.318 34.4181 146.326 33.5752C145.936 33.2434 145.934 32.9842 145.398 32.7908C145.219 32.7266 143.153 32.4544 143.124 32.5191Z" fill="#2F2E41"/>
<path d="M119.427 62.5953L116.331 61.2769L96.979 80.9702C96.979 80.9702 92.7273 86.4062 96.6007 90.4518C100.474 94.4975 109.001 105.809 109.001 105.809L117.768 98.0188C117.768 98.0188 106.74 88.7777 108.141 86.6876C109.542 84.5975 117.055 80.3538 117.055 80.3538L119.427 62.5953Z" fill="#393263"/>
<path d="M156.866 63.2513L160.338 63.78C160.338 63.78 174.758 91.7977 171.286 97.084C167.815 102.37 153.662 109.771 153.662 109.771C153.662 109.771 153.395 101.049 150.991 97.877L159.269 94.7052L154.73 77.2602L156.866 63.2513Z" fill="#393263"/>
<path d="M59.8721 60.9001L82.7936 38.2463L82.7936 83.5539L59.8721 60.9001Z" fill="#FEBE44"/>
<path d="M105.715 60.9001L82.7936 38.2463L82.7936 83.5539L105.715 60.9001Z" fill="#FEBE44"/>
<path d="M98.0747 59.4779L82.8193 42.8684L67.564 59.4779H77.8197L82.7937 54.043L87.7677 59.4779H98.0747Z" fill="#EEF2FC"/>
<path d="M82.8192 42.868L82.7936 54.0425L87.7676 59.4774H98.0746L82.8192 42.868Z" fill="#EEF2FC"/>
<path d="M59.8721 60.8998L82.7936 83.5536L105.715 60.8998L82.7936 69.4331L59.8721 60.8998Z" fill="#FFCE45"/>
<path d="M82.7936 83.5536L105.715 60.8998L82.7936 69.4331L82.7936 83.5536Z" fill="#FFCE45"/>
</svg>
