<svg width="25" height="25" viewBox="0 0 25 25" fill="none" xmlns="http://www.w3.org/2000/svg">
<path fill-rule="evenodd" clip-rule="evenodd" d="M0 12.5C0 5.59639 5.59639 0 12.5 0C19.4036 0 25 5.59639 25 12.5C25 19.4036 19.4036 25 12.5 25C5.59639 25 0 19.4036 0 12.5ZM18.5825 7.19043L16.3498 18.4472C16.3498 18.4472 16.0375 19.2278 15.1789 18.8531L12.0021 16.4176L9.9644 18.2755C9.9644 18.2755 9.80503 18.3964 9.63081 18.3206C9.63081 18.3206 9.48042 18.3065 9.29292 17.7132C9.10571 17.1199 8.15327 13.9977 8.15327 13.9977L4.99956 12.9359C4.99956 12.9359 4.51558 12.7643 4.4687 12.3896C4.42183 12.0148 5.01519 11.8119 5.01519 11.8119L17.5519 6.89395C17.5519 6.89395 18.5825 6.44102 18.5825 7.19043Z" fill="#EEF2FC"/>
<path fill-rule="evenodd" clip-rule="evenodd" d="M0 12.5C0 5.59639 5.59639 0 12.5 0C19.4036 0 25 5.59639 25 12.5C25 19.4036 19.4036 25 12.5 25C5.59639 25 0 19.4036 0 12.5ZM18.5825 7.19043L16.3498 18.4472C16.3498 18.4472 16.0375 19.2278 15.1789 18.8531L12.0021 16.4176L9.9644 18.2755C9.9644 18.2755 9.80503 18.3964 9.63081 18.3206C9.63081 18.3206 9.48042 18.3065 9.29292 17.7132C9.10571 17.1199 8.15327 13.9977 8.15327 13.9977L4.99956 12.9359C4.99956 12.9359 4.51558 12.7643 4.4687 12.3896C4.42183 12.0148 5.01519 11.8119 5.01519 11.8119L17.5519 6.89395C17.5519 6.89395 18.5825 6.44102 18.5825 7.19043Z" fill="url(#paint0_linear)"/>
<defs>
<linearGradient id="paint0_linear" x1="12.5" y1="0" x2="12.5" y2="25" gradientUnits="userSpaceOnUse">
<stop stop-color="white"/>
<stop offset="1" stop-color="#ECF4F9"/>
</linearGradient>
</defs>
</svg>
