<svg width="25" height="25" viewBox="0 0 25 25" fill="none" xmlns="http://www.w3.org/2000/svg">
<path fill-rule="evenodd" clip-rule="evenodd" d="M12.5 25C19.4036 25 25 19.4036 25 12.5C25 5.59644 19.4036 0 12.5 0C5.59644 0 0 5.59644 0 12.5C0 19.4036 5.59644 25 12.5 25ZM18.3048 9.35309C18.8801 9.28237 19.4419 9.12619 19.9723 8.8896L20 8.90156C19.61 9.49352 19.1181 10.0097 18.548 10.4254C18.5568 10.551 18.5568 10.6772 18.5568 10.8021C18.5568 14.6835 15.638 19.1667 10.2939 19.1667C8.71289 19.1679 7.16477 18.7093 5.83333 17.8455C6.06412 17.8719 6.29373 17.8856 6.52393 17.8856C7.82984 17.8869 9.09831 17.4436 10.1257 16.6267C9.5191 16.6151 8.93126 16.4119 8.44411 16.0456C7.95696 15.6792 7.5948 15.168 7.40813 14.5831C7.84162 14.6653 8.28778 14.6479 8.71377 14.5323C8.05635 14.3974 7.46523 14.0362 7.0407 13.5101C6.61617 12.9839 6.38437 12.3251 6.38463 11.6455V11.609C6.78776 11.8362 7.23864 11.9625 7.69971 11.9774C6.92176 11.4493 6.40824 10.5504 6.40824 9.52773C6.40509 9.00743 6.54093 8.49596 6.80135 8.04753C8.2333 9.82317 10.373 10.9978 12.7871 11.1132C12.6413 10.4821 12.7052 9.81988 12.9689 9.22937C13.2327 8.63886 13.6814 8.1531 14.2456 7.84753C14.8097 7.54196 15.4577 7.43367 16.0888 7.53948C16.7199 7.64528 17.2989 7.95927 17.7358 8.43268C18.3981 8.29811 19.0202 8.0565 19.5815 7.72457C19.3639 8.40579 18.9105 8.98424 18.3048 9.35309Z" fill="#EEF2FC"/>
</svg>
