<svg width="50" height="50" viewBox="0 0 50 50" fill="none" xmlns="http://www.w3.org/2000/svg">
<path fill-rule="evenodd" clip-rule="evenodd" d="M16.556 13.1071C15.8441 12.7781 15 13.2469 15 13.9714V36.0286C15 36.7531 15.8441 37.222 16.556 36.8929L40.416 25.8643C41.1947 25.5044 41.1947 24.4956 40.416 24.1357L16.556 13.1071ZM32.6841 25L19.16 18.7489L19.16 31.2511L32.6841 25Z" fill="#0FE7DC"/>
<path fill-rule="evenodd" clip-rule="evenodd" d="M4 9V41H46V9H4ZM2 5C0.895431 5 0 5.89543 0 7V43C0 44.1046 0.895432 45 2 45H48C49.1046 45 50 44.1046 50 43V7C50 5.89543 49.1046 5 48 5H2Z" fill="#0FE7DC"/>
</svg>
