<svg width="20" height="20" viewBox="0 0 20 20" fill="none" xmlns="http://www.w3.org/2000/svg">
<path fill-rule="evenodd" clip-rule="evenodd" d="M16.8 0.4C16.8 0.179086 16.6209 0 16.4 0H3.60001C3.3791 0 3.20001 0.179086 3.20001 0.4V6.34566C3.20001 6.4817 3.26915 6.60841 3.38355 6.68203L8.53952 10L3.20001 13.4361V19.6C3.20001 19.8209 3.3791 20 3.60001 20H16.4C16.6209 20 16.8 19.8209 16.8 19.6V13.6543C16.8 13.5183 16.7309 13.3916 16.6165 13.318L11.4605 10L16.6165 6.68203C16.7309 6.60841 16.8 6.4817 16.8 6.34566V0.4ZM4.80001 5.69089V1.6H15.2V5.69089L10 9.03719L4.80001 5.69089ZM4.80001 14.3091V18.4H15.2V14.3091L10 10.9628L4.80001 14.3091Z" fill="#FFBE44"/>
<path d="M6 15.5996H14V17.1996H6V15.5996Z" fill="#FFBE44"/>
<path d="M9.99999 7.59961L6.79999 5.59961L13.2 5.59961L9.99999 7.59961Z" fill="#FFBE44"/>
</svg>
